<svg font-size="10px" font-family="sans-serif" fill="none" stroke="none" stroke-width="1.5" width="700" height="600"><g transform="translate(100,0)"><g><a title="AidData Codes"><path transform="translate(300,300)" d="M0,1300A1300,1300 0 1,1 0,-1300A1300,1300 0 1,1 0,1300Z" fill="rgb(255,255,255)" fill-rule="evenodd" stroke="rgb(255,255,255)" stroke-width="3"></path></a><a title="SOCIAL INFRASTRUCTURE AND SERVICES"><path transform="translate(300,300)" d="M7.959941299845452e-14,-1300A1300,1300 0 0,1 1088.9251782053752,710.0999621675751L27.92115841552244,18.207691337630127A33.33333333333333,33.33333333333333 0 0,0 2.0410105897039617e-15,-33.33333333333333Z" fill="rgb(191,64,64)" fill-rule="evenodd" stroke="rgb(255,255,255)" stroke-width="0.5"></path></a><a title="EDUCATION"><path transform="translate(300,300)" d="M7.959941299845452e-14,-1300A1300,1300 0 0,1 572.2059510068095,-1167.2961704864763L44.015842385139194,-89.79201311434433A100,100 0 0,0 6.123031769111886e-15,-100Z" fill="rgb(191,65,64)" fill-rule="evenodd" stroke="rgb(255,255,255)" stroke-width="0.5"></path></a><a title="11000: Education, combinations of purposes"><path transform="translate(300,300)" d="M7.959941299845452e-14,-1300A1300,1300 0 0,1 42.31449813158163,-1299.3111572090315L5.424935657895081,-166.57835348833737A166.66666666666669,166.66666666666669 0 0,0 1.0205052948519812e-14,-166.66666666666669Z" fill="rgb(217,141,140)" fill-rule="evenodd" stroke="rgb(255,255,255)"></path></a><a title="Education, level unspecified"><path transform="translate(300,300)" d="M42.31449813158135,-1299.3111572090315A1300,1300 0 0,1 293.6962532682199,-1266.3895572912031L37.65336580361794,-162.35763555015427A166.66666666666669,166.66666666666669 0 0,0 5.424935657895046,-166.57835348833737Z" fill="rgb(191,66,64)" fill-rule="evenodd" stroke="rgb(255,255,255)" stroke-width="0.5"></path></a><a title="11100: Education, level unspecified, combinations of purposes"><path transform="translate(300,300)" d="M42.31449813158135,-1299.3111572090315A1300,1300 0 0,1 84.58415312932998,-1297.2453588428807L15.181771074495126,-232.8389105615427A233.33333333333334,233.33333333333334 0 0,0 7.5949099210530635,-233.2096948836723Z" fill="rgb(217,142,140)" fill-rule="evenodd" stroke="rgb(255,255,255)"></path></a><a title="11105: Education, level unspecified, purpose unspecified or does not fit under any other applicable codes"><path transform="translate(300,300)" d="M84.58415312933028,-1297.2453588428807A1300,1300 0 0,1 126.76416938228921,-1293.8047941481816L22.752543222462165,-232.22137330864797A233.33333333333334,233.33333333333334 0 0,0 15.181771074495177,-232.8389105615427Z" fill="rgb(217,143,140)" fill-rule="evenodd" stroke="rgb(255,255,255)"></path></a><a title="11110: Education policy and administrative management"><path transform="translate(300,300)" d="M126.76416938228891,-1293.8047941481816A1300,1300 0 0,1 168.80984627489073,-1288.9931092913755L30.29920317754449,-231.3577375651187A233.33333333333334,233.33333333333334 0 0,0 22.752543222462116,-232.22137330864797Z" fill="rgb(217,143,140)" fill-rule="evenodd" stroke="rgb(255,255,255)"></path></a><a title="11120: Education facilities and training"><path transform="translate(300,300)" d="M168.80984627489048,-1288.9931092913755A1300,1300 0 0,1 210.6766255587985,-1282.8154034946563L37.81375330542537,-230.24891857596396A233.33333333333334,233.33333333333334 0 0,0 30.299203177544445,-231.3577375651187Z" fill="rgb(217,144,140)" fill-rule="evenodd" stroke="rgb(255,255,255)"></path></a><a title="11130: Teacher training"><path transform="translate(300,300)" d="M210.6766255587985,-1282.8154034946563A1300,1300 0 0,1 252.320138573873,-1275.2782236320284L45.28823000043875,-228.8960914211333A233.33333333333334,233.33333333333334 0 0,0 37.81375330542537,-230.24891857596396Z" fill="rgb(217,144,140)" fill-rule="evenodd" stroke="rgb(255,255,255)"></path></a><a title="11182: Educational research"><path transform="translate(300,300)" d="M252.320138573873,-1275.2782236320284A1300,1300 0 0,1 293.6962532682202,-1266.3895572912031L52.71471212506516,-227.30068977021597A233.33333333333334,233.33333333333334 0 0,0 45.28823000043875,-228.8960914211333Z" fill="rgb(217,145,140)" fill-rule="evenodd" stroke="rgb(255,255,255)"></path></a><a title="Basic education"><path transform="translate(300,300)" d="M293.6962532682199,-1266.3895572912031A1300,1300 0 0,1 415.78341603554253,-1231.7159376048583L53.3055661584029,-157.91229969293056A166.66666666666669,166.66666666666669 0 0,0 37.65336580361794,-162.35763555015427Z" fill="rgb(191,72,64)" fill-rule="evenodd" stroke="rgb(255,255,255)" stroke-width="0.5"></path></a><a title="11220: Primary education"><path transform="translate(300,300)" d="M293.6962532682199,-1266.3895572912031A1300,1300 0 0,1 334.76112096749273,-1256.158824308689L60.08532940442178,-225.46440436309803A233.33333333333334,233.33333333333334 0 0,0 52.71471212506511,-227.30068977021597Z" fill="rgb(217,145,140)" fill-rule="evenodd" stroke="rgb(255,255,255)"></path></a><a title="11230: Basic life skills for youth and adults "><path transform="translate(300,300)" d="M334.76112096749273,-1256.158824308689A1300,1300 0 0,1 375.471222843881,-1244.5968667870413L67.39227076685044,-223.38918121818693A233.33333333333334,233.33333333333334 0 0,0 60.08532940442178,-225.46440436309803Z" fill="rgb(217,146,140)" fill-rule="evenodd" stroke="rgb(255,255,255)"></path></a><a title="11240: Early childhood education"><path transform="translate(300,300)" d="M375.471222843881,-1244.5968667870413A1300,1300 0 0,1 415.78341603554276,-1231.715937604858L74.62779262176409,-221.07721957010276A233.33333333333334,233.33333333333334 0 0,0 67.39227076685044,-223.38918121818693Z" fill="rgb(217,146,140)" fill-rule="evenodd" stroke="rgb(255,255,255)"></path></a><a title="Secondary education"><path transform="translate(300,300)" d="M415.78341603554253,-1231.7159376048583A1300,1300 0 0,1 495.0436586262705,-1202.0531502616334L63.46713572131674,-154.10937823867096A166.66666666666669,166.66666666666669 0 0,0 53.3055661584029,-157.91229969293056Z" fill="rgb(191,75,64)" fill-rule="evenodd" stroke="rgb(255,255,255)" stroke-width="0.5"></path></a><a title="11320: Secondary education"><path transform="translate(300,300)" d="M415.78341603554253,-1231.7159376048583A1300,1300 0 0,1 455.6549793676038,-1217.5296874316898L81.78422706598018,-218.53096953902127A233.33333333333334,233.33333333333334 0 0,0 74.62779262176404,-221.07721957010276Z" fill="rgb(217,147,140)" fill-rule="evenodd" stroke="rgb(255,255,255)"></path></a><a title="11330: Vocational training"><path transform="translate(300,300)" d="M455.6549793676038,-1217.5296874316898A1300,1300 0 0,1 495.0436586262707,-1202.0531502616332L88.85399000984346,-215.7531295341393A233.33333333333334,233.33333333333334 0 0,0 81.78422706598018,-218.53096953902127Z" fill="rgb(217,148,140)" fill-rule="evenodd" stroke="rgb(255,255,255)"></path></a><a title="Post-secondary education"><path transform="translate(300,300)" d="M495.0436586262707,-1202.0531502616332A1300,1300 0 0,1 572.2059510068095,-1167.2961704864763L73.35973730856534,-149.6533551905739A166.66666666666669,166.66666666666669 0 0,0 63.467135721316765,-154.10937823867093Z" fill="rgb(191,77,64)" fill-rule="evenodd" stroke="rgb(255,255,255)" stroke-width="0.5"></path></a><a title="11420: Higher education"><path transform="translate(300,300)" d="M495.0436586262707,-1202.0531502616332A1300,1300 0 0,1 533.9077113380768,-1185.3027274809322L95.8295892145266,-212.74664339401346A233.33333333333334,233.33333333333334 0 0,0 88.85399000984346,-215.7531295341393Z" fill="rgb(217,149,140)" fill-rule="evenodd" stroke="rgb(255,255,255)"></path></a><a title="11430: Advanced technical and managerial training"><path transform="translate(300,300)" d="M533.9077113380768,-1185.3027274809322A1300,1300 0 0,1 572.2059510068093,-1167.2961704864763L102.70363223199142,-209.51469726680347A233.33333333333334,233.33333333333334 0 0,0 95.8295892145266,-212.74664339401346Z" fill="rgb(217,149,140)" fill-rule="evenodd" stroke="rgb(255,255,255)"></path></a><a title="HEALTH"><path transform="translate(300,300)" d="M572.2059510068095,-1167.2961704864763A1300,1300 0 0,1 1027.590485138186,-796.2774609729117L79.04542193370662,-61.25211238253168A100,100 0 0,0 44.015842385139194,-89.79201311434433Z" fill="rgb(191,79,64)" fill-rule="evenodd" stroke="rgb(255,255,255)" stroke-width="0.5"></path></a><a title="12000: Health, combination of general, basic, and population policy/reproductive health purposes"><path transform="translate(300,300)" d="M572.2059510068095,-1167.2961704864763A1300,1300 0 0,1 609.8977907612341,-1148.0525618736128L78.19202445656849,-147.18622588123245A166.66666666666669,166.66666666666669 0 0,0 73.35973730856534,-149.6533551905739Z" fill="rgb(217,150,140)" fill-rule="evenodd" stroke="rgb(255,255,255)"></path></a><a title="12005: Health, purpose unspecified or does not fit under any other applicable codes"><path transform="translate(300,300)" d="M609.8977907612341,-1148.0525618736128A1300,1300 0 0,1 646.943286367361,-1127.5922952132116L82.9414469701745,-144.56311477092459A166.66666666666669,166.66666666666669 0 0,0 78.19202445656849,-147.18622588123245Z" fill="rgb(217,151,140)" fill-rule="evenodd" stroke="rgb(255,255,255)"></path></a><a title="Health, general"><path transform="translate(300,300)" d="M646.943286367361,-1127.5922952132116A1300,1300 0 0,1 853.4976378555874,-980.5823688884745L109.42277408404969,-125.71568831903521A166.66666666666669,166.66666666666669 0 0,0 82.9414469701745,-144.56311477092459Z" fill="rgb(191,82,64)" fill-rule="evenodd" stroke="rgb(255,255,255)" stroke-width="0.5"></path></a><a title="12100: Health, general, combinations of activities"><path transform="translate(300,300)" d="M646.943286367361,-1127.5922952132116A1300,1300 0 0,1 683.3031785596729,-1105.9370534394116L122.64416025430027,-198.50152241220206A233.33333333333334,233.33333333333334 0 0,0 116.11802575824427,-202.3883606792944Z" fill="rgb(217,152,140)" fill-rule="evenodd" stroke="rgb(255,255,255)"></path></a><a title="12105: Health, general, purpose unspecified or does not fit under any other applicable codes"><path transform="translate(300,300)" d="M683.3031785596729,-1105.9370534394116A1300,1300 0 0,1 718.9389346464513,-1083.1097858709547L129.04032160320924,-194.4043205409406A233.33333333333334,233.33333333333334 0 0,0 122.64416025430027,-198.50152241220206Z" fill="rgb(217,152,140)" fill-rule="evenodd" stroke="rgb(255,255,255)"></path></a><a title="12110: Health policy and administrative management"><path transform="translate(300,300)" d="M718.9389346464511,-1083.109785870955A1300,1300 0 0,1 753.81278934511,-1059.13468389046L135.2997314209172,-190.10109710854414A233.33333333333334,233.33333333333334 0 0,0 129.04032160320918,-194.40432054094063Z" fill="rgb(217,153,140)" fill-rule="evenodd" stroke="rgb(255,255,255)"></path></a><a title="12181: Medical education/training"><path transform="translate(300,300)" d="M753.81278934511,-1059.13468389046A1300,1300 0 0,1 787.8877848042606,-1034.0371553074071L141.4157562469186,-185.5964124910731A233.33333333333334,233.33333333333334 0 0,0 135.2997314209172,-190.1010971085441Z" fill="rgb(217,153,140)" fill-rule="evenodd" stroke="rgb(255,255,255)"></path></a><a title="12182: Medical research"><path transform="translate(300,300)" d="M787.8877848042606,-1034.0371553074071A1300,1300 0 0,1 821.1278097700965,-1007.843797432005L147.3819145741199,-180.89504056471884A233.33333333333334,233.33333333333334 0 0,0 141.4157562469186,-185.5964124910731Z" fill="rgb(217,153,140)" fill-rule="evenodd" stroke="rgb(255,255,255)"></path></a><a title="12191: Medical services"><path transform="translate(300,300)" d="M821.1278097700964,-1007.843797432005A1300,1300 0 0,1 853.4976378555878,-980.5823688884744L153.1918837176696,-176.00196364664924A233.33333333333334,233.33333333333334 0 0,0 147.38191457411986,-180.89504056471884Z" fill="rgb(217,154,140)" fill-rule="evenodd" stroke="rgb(255,255,255)"></path></a><a title="Basic health"><path transform="translate(300,300)" d="M853.4976378555876,-980.5823688884745A1300,1300 0 0,1 1027.5904851381863,-796.2774609729116L131.74236988951108,-102.08685397088612A166.66666666666669,166.66666666666669 0 0,0 109.4227740840497,-125.71568831903521Z" fill="rgb(191,87,64)" fill-rule="evenodd" stroke="rgb(255,255,255)" stroke-width="0.5"></path></a><a title="12220: Basic health care"><path transform="translate(300,300)" d="M853.4976378555876,-980.5823688884745A1300,1300 0 0,1 884.9629648719318,-952.2817601976212L158.83950651547497,-170.92236721495766A233.33333333333334,233.33333333333334 0 0,0 153.19188371766958,-176.00196364664927Z" fill="rgb(217,155,140)" fill-rule="evenodd" stroke="rgb(255,255,255)"></path></a><a title="12230: Basic health infrastructure"><path transform="translate(300,300)" d="M884.9629648719317,-952.2817601976215A1300,1300 0 0,1 915.4904451826972,-922.9719631598714L164.31879785330463,-165.66163441331025A233.33333333333334,233.33333333333334 0 0,0 158.83950651547494,-170.92236721495772Z" fill="rgb(217,155,140)" fill-rule="evenodd" stroke="rgb(255,255,255)"></path></a><a title="12240: Basic nutrition"><path transform="translate(300,300)" d="M915.4904451826972,-922.9719631598714A1300,1300 0 0,1 945.0477270421324,-892.6840390712156L169.62395100756223,-160.22534034611562A233.33333333333334,233.33333333333334 0 0,0 164.31879785330463,-165.66163441331025Z" fill="rgb(217,156,140)" fill-rule="evenodd" stroke="rgb(255,255,255)"></path></a><a title="12250: Infectious &amp; Parasitic disease control"><path transform="translate(300,300)" d="M945.0477270421324,-892.6840390712156A1300,1300 0 0,1 973.6034868801918,-861.4500858057489L174.74934379900878,-154.61924617026264A233.33333333333334,233.33333333333334 0 0,0 169.62395100756223,-160.22534034611562Z" fill="rgb(217,156,140)" fill-rule="evenodd" stroke="rgb(255,255,255)"></path></a><a title="12261: Health education"><path transform="translate(300,300)" d="M973.6034868801918,-861.4500858057489A1300,1300 0 0,1 1001.1274624979446,-829.3032037996877L179.68954455091313,-148.84929298968754A233.33333333333334,233.33333333333334 0 0,0 174.74934379900878,-154.61924617026264Z" fill="rgb(217,157,140)" fill-rule="evenodd" stroke="rgb(255,255,255)"></path></a><a title="12281: Health personnel development"><path transform="translate(300,300)" d="M1001.1274624979446,-829.3032037996877A1300,1300 0 0,1 1027.590485138186,-796.2774609729117L184.4393178453155,-142.9215955592406A233.33333333333334,233.33333333333334 0 0,0 179.68954455091313,-148.84929298968754Z" fill="rgb(217,157,140)" fill-rule="evenodd" stroke="rgb(255,255,255)"></path></a><a title="POPULATION POLICIES/ PROGRAMMES AND REPRODUCTIVE HEALTH"><path transform="translate(300,300)" d="M1027.5904851381863,-796.2774609729117A1300,1300 0 0,1 1180.9181280003659,-543.5369122333009L90.83985600002815,-41.81053171025392A100,100 0 0,0 79.04542193370663,-61.25211238253168Z" fill="rgb(191,93,64)" fill-rule="evenodd" stroke="rgb(255,255,255)" stroke-width="0.5"></path></a><a title="13000: Population policies/ programmes and reproductive health, combinations of activities"><path transform="translate(300,300)" d="M1027.5904851381863,-796.2774609729117A1300,1300 0 0,1 1052.964510397266,-762.4078566252097L134.99545005093154,-97.74459700323203A166.66666666666669,166.66666666666669 0 0,0 131.74236988951108,-102.08685397088614Z" fill="rgb(217,158,140)" fill-rule="evenodd" stroke="rgb(255,255,255)"></path></a><a title="13005: Population policies/ programmes and reproductive health, purpose unspecified or does not fit under any other applicable codes"><path transform="translate(300,300)" d="M1052.964510397266,-762.4078566252097A1300,1300 0 0,1 1077.2226479453716,-727.7302843454862L138.10546768530406,-93.29875440326747A166.66666666666669,166.66666666666669 0 0,0 134.99545005093154,-97.74459700323203Z" fill="rgb(217,159,140)" fill-rule="evenodd" stroke="rgb(255,255,255)"></path></a><a title="13010: Population policy and administrative management"><path transform="translate(300,300)" d="M1077.2226479453716,-727.7302843454862A1300,1300 0 0,1 1100.339190023777,-692.281493973238L141.06912692612528,-88.75403768887668A166.66666666666669,166.66666666666669 0 0,0 138.10546768530406,-93.29875440326747Z" fill="rgb(217,159,140)" fill-rule="evenodd" stroke="rgb(255,255,255)"></path></a><a title="13020: Reproductive health care"><path transform="translate(300,300)" d="M1100.3391900237768,-692.2814939732382A1300,1300 0 0,1 1122.289638688847,-656.0990526526141L143.88328701139062,-84.11526316059157A166.66666666666669,166.66666666666669 0 0,0 141.06912692612525,-88.75403768887669Z" fill="rgb(217,160,140)" fill-rule="evenodd" stroke="rgb(255,255,255)"></path></a><a title="13030: Family planning"><path transform="translate(300,300)" d="M1122.289638688847,-656.0990526526141A1300,1300 0 0,1 1143.0507317739327,-619.2213050203268L146.5449656120427,-79.3873467974778A166.66666666666669,166.66666666666669 0 0,0 143.88328701139062,-84.11526316059157Z" fill="rgb(217,160,140)" fill-rule="evenodd" stroke="rgb(255,255,255)"></path></a><a title="13040: STD control including HIV/AIDS"><path transform="translate(300,300)" d="M1143.0507317739327,-619.2213050203268A1300,1300 0 0,1 1162.6004675416439,-581.6873325696127L149.05134199251845,-74.57529904738627A166.66666666666669,166.66666666666669 0 0,0 146.5449656120427,-79.3873467974778Z" fill="rgb(217,161,140)" fill-rule="evenodd" stroke="rgb(255,255,255)"></path></a><a title="13081: Personnel development for population and reproductive health"><path transform="translate(300,300)" d="M1162.6004675416439,-581.6873325696127A1300,1300 0 0,1 1180.9181280003659,-543.5369122333013L151.3997600000469,-69.68421951708993A166.66666666666669,166.66666666666669 0 0,0 149.05134199251845,-74.57529904738627Z" fill="rgb(217,161,140)" fill-rule="evenodd" stroke="rgb(255,255,255)"></path></a><a title="WATER SUPPLY AND SANITATION"><path transform="translate(300,300)" d="M1180.9181280003659,-543.5369122333009A1300,1300 0 0,1 1292.7302410571674,-137.2899262738455L99.44078777362826,-10.560763559526578A100,100 0 0,0 90.83985600002815,-41.81053171025392Z" fill="rgb(191,99,64)" fill-rule="evenodd" stroke="rgb(255,255,255)" stroke-width="0.5"></path></a><a title="14000: Water Supply and Sanitation, combination of purposes"><path transform="translate(300,300)" d="M1180.9181280003659,-543.5369122333009A1300,1300 0 0,1 1197.9843008603234,-504.81047422988604L153.58773087952864,-64.71929156793412A166.66666666666669,166.66666666666669 0 0,0 151.39976000004694,-69.68421951708987Z" fill="rgb(217,162,140)" fill-rule="evenodd" stroke="rgb(255,255,255)"></path></a><a title="14005: Water Supply and Sanitation, purpose unspecified or does not fit under any other applicable codes"><path transform="translate(300,300)" d="M1197.9843008603232,-504.81047422988615A1300,1300 0 0,1 1213.7809001059095,-465.5490592172733L155.61293591101406,-59.685776822727355A166.66666666666669,166.66666666666669 0 0,0 153.58773087952864,-64.71929156793412Z" fill="rgb(217,162,140)" fill-rule="evenodd" stroke="rgb(255,255,255)"></path></a><a title="14010: Water resources policy and administrative management"><path transform="translate(300,300)" d="M1213.7809001059095,-465.5490592172733A1300,1300 0 0,1 1228.2911851624906,-425.7942747996081L157.473228866986,-54.58900958969335A166.66666666666669,166.66666666666669 0 0,0 155.61293591101406,-59.685776822727355Z" fill="rgb(217,163,140)" fill-rule="evenodd" stroke="rgb(255,255,255)"></path></a><a title="14015: Water resources protection"><path transform="translate(300,300)" d="M1228.2911851624906,-425.7942747996081A1300,1300 0 0,1 1241.4997786373651,-385.58825143327925L159.16663828684167,-49.43439120939478A166.66666666666669,166.66666666666669 0 0,0 157.473228866986,-54.58900958969335Z" fill="rgb(217,163,140)" fill-rule="evenodd" stroke="rgb(255,255,255)"></path></a><a title="14020: Water supply and sanitation - large systems"><path transform="translate(300,300)" d="M1241.499778637365,-385.5882514332793A1300,1300 0 0,1 1253.3926826160803,-344.97359777882434L160.69136956616416,-44.227384330618506A166.66666666666669,166.66666666666669 0 0,0 159.16663828684167,-49.43439120939479Z" fill="rgb(217,164,140)" fill-rule="evenodd" stroke="rgb(255,255,255)"></path></a><a title="14030: Basic drinking water supply and basic sanitation"><path transform="translate(300,300)" d="M1253.3926826160803,-344.97359777882434A1300,1300 0 0,1 1263.9572934968373,-303.99335554605483L162.0458068585689,-38.97350712128908A166.66666666666669,166.66666666666669 0 0,0 160.69136956616416,-44.227384330618506Z" fill="rgb(217,164,140)" fill-rule="evenodd" stroke="rgb(255,255,255)"></path></a><a title="14040: River development"><path transform="translate(300,300)" d="M1263.9572934968373,-303.99335554605483A1300,1300 0 0,1 1273.1824153472596,-262.6909538802542L163.22851478811023,-33.678327420545415A166.66666666666669,166.66666666666669 0 0,0 162.0458068585689,-38.97350712128908Z" fill="rgb(217,165,140)" fill-rule="evenodd" stroke="rgb(255,255,255)"></path></a><a title="14050: Waste management/disposal"><path transform="translate(300,300)" d="M1273.1824153472596,-262.6909538802542A1300,1300 0 0,1 1281.0582717693746,-221.1101633377873L164.23823997043266,-28.347456838177862A166.66666666666669,166.66666666666669 0 0,0 163.22851478811023,-33.67832742054541Z" fill="rgb(217,165,140)" fill-rule="evenodd" stroke="rgb(255,255,255)"></path></a><a title="14081: Education and training in water supply and sanitation "><path transform="translate(300,300)" d="M1281.0582717693746,-221.1101633377873A1300,1300 0 0,1 1287.5765162602297,-179.29504949989715L165.0739123410551,-22.986544807679124A166.66666666666669,166.66666666666669 0 0,0 164.23823997043266,-28.347456838177862Z" fill="rgb(217,166,140)" fill-rule="evenodd" stroke="rgb(255,255,255)"></path></a><a title="14082: Water Research"><path transform="translate(300,300)" d="M1287.5765162602297,-179.29504949989715A1300,1300 0 0,1 1292.7302410571672,-137.28992627384645L165.73464628938044,-17.601272599211086A166.66666666666669,166.66666666666669 0 0,0 165.0739123410551,-22.986544807679124Z" fill="rgb(217,166,140)" fill-rule="evenodd" stroke="rgb(255,255,255)"></path></a><a title="GOVERNMENT AND CIVIL SOCIETY"><path transform="translate(300,300)" d="M1292.7302410571674,-137.2899262738455A1300,1300 0 0,1 1088.9251782053752,710.0999621675751L83.76347524656734,54.62307401289039A100,100 0 0,0 99.44078777362826,-10.56076355952658Z" fill="rgb(191,108,64)" fill-rule="evenodd" stroke="rgb(255,255,255)" stroke-width="0.5"></path></a><a title="15000: Government and civil society, combination of activities"><path transform="translate(300,300)" d="M1292.7302410571674,-137.2899262738455A1300,1300 0 0,1 1296.513984458383,-95.13930893089274L166.21974159722862,-12.197347298832405A166.66666666666669,166.66666666666669 0 0,0 165.73464628938044,-17.601272599210965Z" fill="rgb(217,167,140)" fill-rule="evenodd" stroke="rgb(255,255,255)"></path></a><a title="Government and civil society, general"><path transform="translate(300,300)" d="M1296.513984458383,-95.13930893089274A1300,1300 0 0,1 1284.487561055105,200.2291324825338L164.6778924429622,25.670401600324848A166.66666666666669,166.66666666666669 0 0,0 166.21974159722862,-12.197347298832405Z" fill="rgb(191,109,64)" fill-rule="evenodd" stroke="rgb(255,255,255)" stroke-width="0.5"></path></a><a title="15100: Government and civil society, general, combination of activities"><path transform="translate(300,300)" d="M1296.513984458383,-95.13930893089274A1300,1300 0 0,1 1298.9237366110078,-52.88786693087108L233.14015785325782,-9.492694064515321A233.33333333333334,233.33333333333334 0 0,0 232.70763823612003,-17.076286218365365Z" fill="rgb(217,168,140)" fill-rule="evenodd" stroke="rgb(255,255,255)"></path></a><a title="15105: Government and civil society, purpose unspecified or does not fit under any other applicable codes"><path transform="translate(300,300)" d="M1298.9237366110078,-52.887866930871084A1300,1300 0 0,1 1299.9569437605824,-10.580376583364757L233.32560529036095,-1.8990419508603409A233.33333333333334,233.33333333333334 0 0,0 233.14015785325782,-9.492694064515323Z" fill="rgb(217,169,140)" fill-rule="evenodd" stroke="rgb(255,255,255)"></path></a><a title="15110: Economic and development policy/planning"><path transform="translate(300,300)" d="M1299.9569437605824,-10.580376583364753A1300,1300 0 0,1 1299.6125109574205,31.73832640434955L233.26378401799855,5.696622687960176A233.33333333333334,233.33333333333334 0 0,0 233.32560529036095,-1.8990419508603404Z" fill="rgb(217,169,140)" fill-rule="evenodd" stroke="rgb(255,255,255)"></path></a><a title="15120: Public sector financial management"><path transform="translate(300,300)" d="M1299.6125109574205,31.738326404349554A1300,1300 0 0,1 1297.890803216988,74.02339444230863L232.9547595517671,13.286250284516933A233.33333333333334,233.33333333333334 0 0,0 233.26378401799855,5.6966226879601765Z" fill="rgb(217,170,140)" fill-rule="evenodd" stroke="rgb(255,255,255)"></path></a><a title="15130: Legal and judicial development"><path transform="translate(300,300)" d="M1297.890803216988,74.02339444230863A1300,1300 0 0,1 1294.7936451330781,116.23001558546063L232.3988593828602,20.861797669185243A233.33333333333334,233.33333333333334 0 0,0 232.9547595517671,13.286250284516935Z" fill="rgb(217,170,140)" fill-rule="evenodd" stroke="rgb(255,255,255)"></path></a><a title="15140: Government administration "><path transform="translate(300,300)" d="M1294.7936451330781,116.23001558546062A1300,1300 0 0,1 1290.3243189441807,158.3134610234892L231.59667263100684,28.4152365939596A233.33333333333334,233.33333333333334 0 0,0 232.3988593828602,20.86179766918524Z" fill="rgb(217,170,140)" fill-rule="evenodd" stroke="rgb(255,255,255)"></path></a><a title="15150: Strengthening civil society"><path transform="translate(300,300)" d="M1290.3243189441807,158.31346102348922A1300,1300 0 0,1 1284.4875610551048,200.22913248253425L230.54904942014704,35.93856224045487A233.33333333333334,233.33333333333334 0 0,0 231.59667263100684,28.415236593959605Z" fill="rgb(217,171,140)" fill-rule="evenodd" stroke="rgb(255,255,255)"></path></a><a title="Conflict prevention and resolution, peace and security"><path transform="translate(300,300)" d="M1284.487561055105,200.2291324825338A1300,1300 0 0,1 1189.6088120722418,524.2431441993969L152.51395026567204,67.21065951274319A166.66666666666669,166.66666666666669 0 0,0 164.6778924429622,25.670401600324848Z" fill="rgb(191,116,64)" fill-rule="evenodd" stroke="rgb(255,255,255)" stroke-width="0.5"></path></a><a title="15200: Conflict prevention and resolution, peace and security, combinations of activities"><path transform="translate(300,300)" d="M1284.487561055105,200.2291324825338A1300,1300 0 0,1 1277.2895570175342,241.93260948857503L229.25709997750613,43.42380170307757A233.33333333333334,233.33333333333334 0 0,0 230.54904942014707,35.938562240454786Z" fill="rgb(217,172,140)" fill-rule="evenodd" stroke="rgb(255,255,255)"></path></a><a title="15205: Conflict prevention and resolution, peace and security, purpose unspecified or does not fit under any other applicable codes"><path transform="translate(300,300)" d="M1277.2895570175342,241.93260948857503A1300,1300 0 0,1 1268.7379349748387,283.379696442391L227.72219345702234,50.86302243837787A233.33333333333334,233.33333333333334 0 0,0 229.25709997750613,43.42380170307757Z" fill="rgb(217,172,140)" fill-rule="evenodd" stroke="rgb(255,255,255)"></path></a><a title="15210: Security system management and reform"><path transform="translate(300,300)" d="M1268.7379349748387,283.3796964423909A1300,1300 0 0,1 1258.8417575780884,324.52646945620506L225.94595648837486,58.24834067162655A233.33333333333334,233.33333333333334 0 0,0 227.72219345702234,50.86302243837786Z" fill="rgb(217,173,140)" fill-rule="evenodd" stroke="rgb(255,255,255)"></path></a><a title="15220: Civilian peace-building, conflict prevention and resolution"><path transform="translate(300,300)" d="M1258.8417575780884,324.52646945620506A1300,1300 0 0,1 1247.6115123818336,365.3293229023831L223.93027145314963,65.5719297517098A233.33333333333334,233.33333333333334 0 0,0 225.94595648837486,58.24834067162655Z" fill="rgb(217,173,140)" fill-rule="evenodd" stroke="rgb(255,255,255)"></path></a><a title="15230: Post-conflict peace-building (UN)"><path transform="translate(300,300)" d="M1247.6115123818336,365.3293229023831A1300,1300 0 0,1 1235.0591007298349,405.7450156248525L221.67727448997036,72.82602844548634A233.33333333333334,233.33333333333334 0 0,0 223.93027145314963,65.5719297517098Z" fill="rgb(217,174,140)" fill-rule="evenodd" stroke="rgb(255,255,255)"></path></a><a title="15240: Reintegration and SALW control"><path transform="translate(300,300)" d="M1235.0591007298349,405.7450156248525A1300,1300 0 0,1 1221.1978251425162,445.7307167642685L219.18935323070804,80.00294916281743A233.33333333333334,233.33333333333334 0 0,0 221.67727448997036,72.82602844548634Z" fill="rgb(217,174,140)" fill-rule="evenodd" stroke="rgb(255,255,255)"></path></a><a title="15250: Land mine clearance"><path transform="translate(300,300)" d="M1221.1978251425162,445.7307167642685A1300,1300 0 0,1 1206.0423752195115,485.24405114836713L216.46914427016873,87.09508610355309A233.33333333333334,233.33333333333334 0 0,0 219.18935323070804,80.00294916281743Z" fill="rgb(217,175,140)" fill-rule="evenodd" stroke="rgb(255,255,255)"></path></a><a title="15261: Child soldiers (Prevention and demobilisation) "><path transform="translate(300,300)" d="M1206.0423752195115,485.24405114836713A1300,1300 0 0,1 1189.6088120722413,524.2431441993981L213.51953037194076,94.0949233178407A233.33333333333334,233.33333333333334 0 0,0 216.46914427016873,87.09508610355309Z" fill="rgb(217,175,140)" fill-rule="evenodd" stroke="rgb(255,255,255)"></path></a><a title="OTHER SOCIAL INFRASTRUCTURE AND SERVICES"><path transform="translate(300,300)" d="M1189.6088120722418,524.243144199397A1300,1300 0 0,1 1088.9251782053755,710.0999621675749L139.60579207761225,91.03845668815063A166.66666666666669,166.66666666666669 0 0,0 152.51395026567204,67.2106595127432Z" fill="rgb(191,123,64)" fill-rule="evenodd" stroke="rgb(255,255,255)" stroke-width="0.5"></path></a><a title="16010: Social/ welfare services"><path transform="translate(300,300)" d="M1189.6088120722418,524.243144199397A1300,1300 0 0,1 1171.9145513030198,562.6866663110488L210.34363741336256,100.9950426712139A233.33333333333334,233.33333333333334 0 0,0 213.51953037194085,94.09492331784048Z" fill="rgb(217,176,140)" fill-rule="evenodd" stroke="rgb(255,255,255)"></path></a><a title="16020: Employment policy and administrative management"><path transform="translate(300,300)" d="M1171.9145513030198,562.6866663110488A1300,1300 0 0,1 1152.9783445487267,600.5338766478353L206.94483107284842,107.78813170602173A233.33333333333334,233.33333333333334 0 0,0 210.34363741336256,100.9950426712139Z" fill="rgb(217,177,140)" fill-rule="evenodd" stroke="rgb(255,255,255)"></path></a><a title="16030: Housing policy and administrative management"><path transform="translate(300,300)" d="M1152.9783445487267,600.5338766478353A1300,1300 0 0,1 1132.82025960861,637.7446663205275L203.3267132630839,114.46699139086392A233.33333333333334,233.33333333333334 0 0,0 206.94483107284842,107.78813170602173Z" fill="rgb(217,177,140)" fill-rule="evenodd" stroke="rgb(255,255,255)"></path></a><a title="16050: Multisector aid for social services "><path transform="translate(300,300)" d="M1132.82025960861,637.7446663205275A1300,1300 0 0,1 1111.4616591772713,674.2796008918757L199.49311831386922,121.02454374982385A233.33333333333334,233.33333333333334 0 0,0 203.3267132630839,114.46699139086392Z" fill="rgb(217,178,140)" fill-rule="evenodd" stroke="rgb(255,255,255)"></path></a><a title="16081: Other social infrastructure and services, education and training"><path transform="translate(300,300)" d="M1111.4616591772713,674.2796008918757A1300,1300 0 0,1 1088.925178205375,710.0999621675754L195.44810890865708,127.45383936341098A233.33333333333334,233.33333333333334 0 0,0 199.49311831386922,121.02454374982385Z" fill="rgb(217,178,140)" fill-rule="evenodd" stroke="rgb(255,255,255)"></path></a><a title="ECONOMIC INFRASTRUCTURE AND SERVICES"><path transform="translate(300,300)" d="M1088.9251782053752,710.0999621675753A1300,1300 0 0,1 -231.52905469811216,1279.2162822723133L-5.936642428156722,32.80041749416188A33.33333333333333,33.33333333333333 0 0,0 27.92115841552244,18.20769133763013Z" fill="rgb(191,128,64)" fill-rule="evenodd" stroke="rgb(255,255,255)" stroke-width="0.5"></path></a><a title="TRANSPORT AND STORAGE"><path transform="translate(300,300)" d="M1088.9251782053752,710.0999621675753A1300,1300 0 0,1 837.4236644795983,994.3448125120185L64.4172049599691,76.4880625009245A100,100 0 0,0 83.76347524656734,54.623074012890406Z" fill="rgb(191,129,64)" fill-rule="evenodd" stroke="rgb(255,255,255)" stroke-width="0.5"></path></a><a title="21000: Transport and Storage, combination of purposes"><path transform="translate(300,300)" d="M1088.9251782053752,710.0999621675753A1300,1300 0 0,1 1065.2346999120775,745.1677892281884L136.56855127077918,95.53433195233187A166.66666666666669,166.66666666666669 0 0,0 139.60579207761222,91.03845668815069Z" fill="rgb(217,180,140)" fill-rule="evenodd" stroke="rgb(255,255,255)"></path></a><a title="21005: Transport and Storage, purpose unspecified or does not fit under any other applicable codes"><path transform="translate(300,300)" d="M1065.2346999120775,745.1677892281884A1300,1300 0 0,1 1040.4153304745892,779.4459186585375L133.38658083007556,99.92896393058173A166.66666666666669,166.66666666666669 0 0,0 136.56855127077918,95.53433195233187Z" fill="rgb(217,181,140)" fill-rule="evenodd" stroke="rgb(255,255,255)"></path></a><a title="21010: Transport policy and administrative management"><path transform="translate(300,300)" d="M1040.4153304745892,779.4459186585375A1300,1300 0 0,1 1014.4933724216997,812.898023931936L130.0632528745769,104.21769537588924A166.66666666666669,166.66666666666669 0 0,0 133.38658083007556,99.92896393058173Z" fill="rgb(217,182,140)" fill-rule="evenodd" stroke="rgb(255,255,255)"></path></a><a title="21020: Road transport"><path transform="translate(300,300)" d="M1014.4933724216997,812.898023931936A1300,1300 0 0,1 987.4962967594595,845.4886539075221L126.60208932813583,108.39598127019515A166.66666666666669,166.66666666666669 0 0,0 130.0632528745769,104.21769537588924Z" fill="rgb(217,183,140)" fill-rule="evenodd" stroke="rgb(255,255,255)"></path></a><a title="21030: Rail transport"><path transform="translate(300,300)" d="M987.4962967594595,845.4886539075221A1300,1300 0 0,1 959.4527138585563,877.1832703998928L123.0067581869944,112.4593936410119A166.66666666666669,166.66666666666669 0 0,0 126.60208932813583,108.39598127019515Z" fill="rgb(217,184,140)" fill-rule="evenodd" stroke="rgb(255,255,255)"></path></a><a title="21040: Water transport"><path transform="translate(300,300)" d="M959.4527138585563,877.1832703998928A1300,1300 0 0,1 930.3923431342429,907.9482847812278L119.28106963259525,116.40362625400357A166.66666666666669,166.66666666666669 0 0,0 123.0067581869944,112.4593936410119Z" fill="rgb(217,185,140)" fill-rule="evenodd" stroke="rgb(255,255,255)"></path></a><a title="21050: Air transport"><path transform="translate(300,300)" d="M930.3923431342427,907.9482847812279A1300,1300 0 0,1 900.345981550944,937.7510935771107L115.42897199371079,120.22449917655268A166.66666666666669,166.66666666666669 0 0,0 119.28106963259523,116.4036262540036Z" fill="rgb(217,186,140)" fill-rule="evenodd" stroke="rgb(255,255,255)"></path></a><a title="21061: Storage"><path transform="translate(300,300)" d="M900.345981550944,937.7510935771107A1300,1300 0 0,1 869.345470984924,966.560113018327L111.45454756216975,123.91796320747783A166.66666666666669,166.66666666666669 0 0,0 115.42897199371079,120.22449917655268Z" fill="rgb(217,187,140)" fill-rule="evenodd" stroke="rgb(255,255,255)"></path></a><a title="21081: Education and training in transport and storage"><path transform="translate(300,300)" d="M869.3454709849237,966.560113018327A1300,1300 0 0,1 837.4236644795973,994.3448125120193L107.36200826661505,127.48010416820762A166.66666666666669,166.66666666666669 0 0,0 111.45454756216972,123.91796320747783Z" fill="rgb(217,188,140)" fill-rule="evenodd" stroke="rgb(255,255,255)"></path></a><a title="COMMUNICATIONS"><path transform="translate(300,300)" d="M837.4236644795983,994.3448125120185A1300,1300 0 0,1 591.1301829492498,1157.8277535136158L45.47155253455768,89.06367334720122A100,100 0 0,0 64.4172049599691,76.4880625009245Z" fill="rgb(191,144,64)" fill-rule="evenodd" stroke="rgb(255,255,255)" stroke-width="0.5"></path></a><a title="22000: Communications, combinations of activities"><path transform="translate(300,300)" d="M837.4236644795983,994.3448125120185A1300,1300 0 0,1 804.6143914292514,1021.0757469967325L103.1556912088784,130.90714705086316A166.66666666666669,166.66666666666669 0 0,0 107.36200826661518,127.48010416820752Z" fill="rgb(217,189,140)" fill-rule="evenodd" stroke="rgb(255,255,255)"></path></a><a title="22005: Communications, purpose unspecified or does not fit under any other applicable codes"><path transform="translate(300,300)" d="M804.6143914292514,1021.0757469967325A1300,1300 0 0,1 770.9524217280652,1046.7245881470596L98.84005406770068,134.19546001885382A166.66666666666669,166.66666666666669 0 0,0 103.1556912088784,130.90714705086316Z" fill="rgb(217,190,140)" fill-rule="evenodd" stroke="rgb(255,255,255)"></path></a><a title="22010: Communications policy and administrative management"><path transform="translate(300,300)" d="M770.9524217280652,1046.7245881470596A1300,1300 0 0,1 736.4734289224373,1071.2641543948102L94.41967037467147,137.34155825574493A166.66666666666669,166.66666666666669 0 0,0 98.84005406770068,134.19546001885382Z" fill="rgb(217,191,140)" fill-rule="evenodd" stroke="rgb(255,255,255)"></path></a><a title="22020: Telecommunications"><path transform="translate(300,300)" d="M736.4734289224372,1071.2641543948102A1300,1300 0 0,1 701.2139524056505,1094.6684397349027L89.8992246673911,140.34210765832088A166.66666666666669,166.66666666666669 0 0,0 94.41967037467144,137.34155825574493Z" fill="rgb(217,192,140)" fill-rule="evenodd" stroke="rgb(255,255,255)"></path></a><a title="22030: Radio/television/print media"><path transform="translate(300,300)" d="M701.2139524056505,1094.6684397349027A1300,1300 0 0,1 665.2113586949542,1116.9126412854378L85.28350752499415,143.19392836992793A166.66666666666669,166.66666666666669 0 0,0 89.8992246673911,140.34210765832088Z" fill="rgb(217,193,140)" fill-rule="evenodd" stroke="rgb(255,255,255)"></path></a><a title="22040: Information and communication technology (ICT)"><path transform="translate(300,300)" d="M665.2113586949542,1116.9126412854378A1300,1300 0 0,1 628.5038018320929,1137.9731855727557L80.57741049129396,145.8939981503533A166.66666666666669,166.66666666666669 0 0,0 85.28350752499415,143.19392836992793Z" fill="rgb(217,194,140)" fill-rule="evenodd" stroke="rgb(255,255,255)"></path></a><a title="22081: Communications, education and training."><path transform="translate(300,300)" d="M628.5038018320929,1137.9731855727557A1300,1300 0 0,1 591.1301829492494,1157.8277535136162L75.7859208909294,148.43945557866877A166.66666666666669,166.66666666666669 0 0,0 80.57741049129396,145.8939981503533Z" fill="rgb(217,195,140)" fill-rule="evenodd" stroke="rgb(255,255,255)"></path></a><a title="ENERGY GENERATION AND SUPPLY"><path transform="translate(300,300)" d="M591.1301829492498,1157.8277535136158A1300,1300 0 0,1 189.76837615478232,1286.074633686388L14.597567396521715,98.928817975876A100,100 0 0,0 45.47155253455768,89.06367334720122Z" fill="rgb(191,156,64)" fill-rule="evenodd" stroke="rgb(255,255,255)" stroke-width="0.5"></path></a><a title="23000: Energy generation and supply, combinations of activities"><path transform="translate(300,300)" d="M591.1301829492498,1157.8277535136158A1300,1300 0 0,1 553.1301090432546,1176.4553040680285L70.91411654400702,150.82760308564468A166.66666666666669,166.66666666666669 0 0,0 75.78592089092948,148.4394555786687Z" fill="rgb(217,197,140)" fill-rule="evenodd" stroke="rgb(255,255,255)"></path></a><a title="23005: Energy generation and supply, purpose unspecified or does not fit under any other applicable codes"><path transform="translate(300,300)" d="M553.1301090432546,1176.4553040680285A1300,1300 0 0,1 514.5438510017486,1193.8360965376655L65.96716038483957,153.05590981252124A166.66666666666669,166.66666666666669 0 0,0 70.91411654400702,150.82760308564468Z" fill="rgb(217,198,140)" fill-rule="evenodd" stroke="rgb(255,255,255)"></path></a><a title="23010: Energy policy and administrative management"><path transform="translate(300,300)" d="M514.5438510017486,1193.8360965376655A1300,1300 0 0,1 475.4123009257813,1209.9517114862288L60.95029499048479,155.12201429310628A166.66666666666669,166.66666666666669 0 0,0 65.96716038483957,153.05590981252124Z" fill="rgb(217,199,140)" fill-rule="evenodd" stroke="rgb(255,255,255)"></path></a><a title="23020: Power generation/non-renewable sources "><path transform="translate(300,300)" d="M475.4123009257813,1209.9517114862288A1300,1300 0 0,1 435.7769287940748,1224.7850702595963L55.868837024881394,157.0237269563585A166.66666666666669,166.66666666666669 0 0,0 60.95029499048479,155.12201429310628Z" fill="rgb(217,199,140)" fill-rule="evenodd" stroke="rgb(255,255,255)"></path></a><a title="23030: Power generation/renewable sources "><path transform="translate(300,300)" d="M435.7769287940748,1224.7850702595963A1300,1300 0 0,1 395.6797385148757,1238.3204530850646L50.72817160447124,158.75903244680316A166.66666666666669,166.66666666666669 0 0,0 55.868837024881394,157.0237269563585Z" fill="rgb(217,200,140)" fill-rule="evenodd" stroke="rgb(255,255,255)"></path></a><a title="23040: Electrical transmission/ distribution"><path transform="translate(300,300)" d="M395.6797385148754,1238.3204530850646A1300,1300 0 0,1 355.16322341197116,1250.5435157305076L45.53374659127836,160.3260917603215A166.66666666666669,166.66666666666669 0 0,0 50.72817160447121,158.75903244680316Z" fill="rgb(217,201,140)" fill-rule="evenodd" stroke="rgb(255,255,255)"></path></a><a title="23050: Gas distribution"><path transform="translate(300,300)" d="M355.16322341197116,1250.5435157305076A1300,1300 0 0,1 314.27032119204466,1261.4413047057913L40.29106681949291,161.7232441930502A166.66666666666669,166.66666666666669 0 0,0 45.53374659127836,160.3260917603215Z" fill="rgb(217,202,140)" fill-rule="evenodd" stroke="rgb(255,255,255)"></path></a><a title="23055: Petroleum distribution and storage"><path transform="translate(300,300)" d="M314.27032119204466,1261.4413047057913A1300,1300 0 0,1 273.04436844108966,1271.002270990342L35.00568826167816,162.9490091013259A166.66666666666669,166.66666666666669 0 0,0 40.29106681949291,161.7232441930502Z" fill="rgb(217,203,140)" fill-rule="evenodd" stroke="rgb(255,255,255)"></path></a><a title="23081: Energy education/training"><path transform="translate(300,300)" d="M273.04436844108966,1271.002270990342A1300,1300 0 0,1 231.5290546981112,1279.2162822723135L29.68321214078349,164.00208747080944A166.66666666666669,166.66666666666669 0 0,0 35.00568826167816,162.9490091013259Z" fill="rgb(217,204,140)" fill-rule="evenodd" stroke="rgb(255,255,255)"></path></a><a title="23082: Energy research"><path transform="translate(300,300)" d="M231.5290546981112,1279.2162822723135A1300,1300 0 0,1 189.76837615478115,1286.074633686388L24.329278994202713,164.88136329312673A166.66666666666669,166.66666666666669 0 0,0 29.68321214078349,164.00208747080944Z" fill="rgb(217,205,140)" fill-rule="evenodd" stroke="rgb(255,255,255)"></path></a><a title="BANKING AND FINANCIAL SERVICES"><path transform="translate(300,300)" d="M189.76837615478232,1286.074633686388A1300,1300 0 0,1 -105.68816266958886,1295.6967285100038L-8.129858666891451,99.66897911615415A100,100 0 0,0 14.597567396521715,98.928817975876Z" fill="rgb(191,173,64)" fill-rule="evenodd" stroke="rgb(255,255,255)" stroke-width="0.5"></path></a><a title="24000: Banking and financial services, combinations of activities"><path transform="translate(300,300)" d="M189.76837615478232,1286.074633686388A1300,1300 0 0,1 147.8065890301168,1291.5700570388283L18.949562696168826,165.58590474856774A166.66666666666669,166.66666666666669 0 0,0 24.329278994202863,164.8813632931267Z" fill="rgb(217,207,140)" fill-rule="evenodd" stroke="rgb(255,255,255)"></path></a><a title="24005: Banking and financial services, purpose unspecified or does not fit under any other applicable codes"><path transform="translate(300,300)" d="M147.8065890301168,1291.5700570388283A1300,1300 0 0,1 105.68816266958817,1295.6967285100038L13.549764444818997,166.11496519359025A166.66666666666669,166.66666666666669 0 0,0 18.949562696168826,165.58590474856774Z" fill="rgb(217,208,140)" fill-rule="evenodd" stroke="rgb(255,255,255)"></path></a><a title="24010: Financial policy and administrative management"><path transform="translate(300,300)" d="M105.68816266958817,1295.6967285100038A1300,1300 0 0,1 63.4577324183739,1298.4502748262323L8.135606720304347,166.46798395208108A166.66666666666669,166.66666666666669 0 0,0 13.549764444818997,166.11496519359025Z" fill="rgb(217,209,140)" fill-rule="evenodd" stroke="rgb(255,255,255)"></path></a><a title="24020: Monetary institutions"><path transform="translate(300,300)" d="M63.4577324183739,1298.4502748262323A1300,1300 0 0,1 21.160052318686382,1299.8277778943911L2.7128272203444084,166.64458690953734A166.66666666666669,166.66666666666669 0 0,0 8.135606720304347,166.46798395208108Z" fill="rgb(217,209,140)" fill-rule="evenodd" stroke="rgb(255,255,255)"></path></a><a title="24030: Formal sector financial intermediaries"><path transform="translate(300,300)" d="M21.160052318686095,1299.8277778943911A1300,1300 0 0,1 -21.160052318687953,1299.8277778943911L-2.7128272203446095,166.64458690953734A166.66666666666669,166.66666666666669 0 0,0 2.7128272203443715,166.64458690953734Z" fill="rgb(217,210,140)" fill-rule="evenodd" stroke="rgb(255,255,255)"></path></a><a title="24040: Informal/semi-formal financial intermediaries"><path transform="translate(300,300)" d="M-21.160052318687953,1299.8277778943911A1300,1300 0 0,1 -63.45773241837547,1298.450274826232L-8.135606720304548,166.46798395208106A166.66666666666669,166.66666666666669 0 0,0 -2.7128272203446095,166.64458690953734Z" fill="rgb(217,211,140)" fill-rule="evenodd" stroke="rgb(255,255,255)"></path></a><a title="24081: Education/training in banking and financial services"><path transform="translate(300,300)" d="M-63.45773241837547,1298.450274826232A1300,1300 0 0,1 -105.68816266958973,1295.6967285100038L-13.549764444819198,166.11496519359025A166.66666666666669,166.66666666666669 0 0,0 -8.135606720304548,166.46798395208106Z" fill="rgb(217,212,140)" fill-rule="evenodd" stroke="rgb(255,255,255)"></path></a><a title="BUSINESS AND OTHER SERVICES"><path transform="translate(300,300)" d="M-105.68816266958886,1295.6967285100038A1300,1300 0 0,1 -231.52905469811333,1279.216282272313L-17.809927284470255,98.40125248248562A100,100 0 0,0 -8.129858666891451,99.66897911615415Z" fill="rgb(191,185,64)" fill-rule="evenodd" stroke="rgb(255,255,255)" stroke-width="0.5"></path></a><a title="25010: Business support services and institutions"><path transform="translate(300,300)" d="M-105.68816266958886,1295.6967285100038A1300,1300 0 0,1 -147.80658903011752,1291.570057038828L-18.949562696168915,165.58590474856774A166.66666666666669,166.66666666666669 0 0,0 -13.549764444819088,166.11496519359025Z" fill="rgb(217,214,140)" fill-rule="evenodd" stroke="rgb(255,255,255)"></path></a><a title="25020: Privatisation"><path transform="translate(300,300)" d="M-147.80658903011752,1291.570057038828A1300,1300 0 0,1 -189.768376154783,1286.0746336863879L-24.32927899420295,164.88136329312667A166.66666666666669,166.66666666666669 0 0,0 -18.949562696168915,165.58590474856774Z" fill="rgb(217,215,140)" fill-rule="evenodd" stroke="rgb(255,255,255)"></path></a><a title="25081: Business education and training"><path transform="translate(300,300)" d="M-189.768376154783,1286.0746336863879A1300,1300 0 0,1 -231.52905469811304,1279.216282272313L-29.683212140783727,164.00208747080939A166.66666666666669,166.66666666666669 0 0,0 -24.32927899420295,164.88136329312667Z" fill="rgb(217,216,140)" fill-rule="evenodd" stroke="rgb(255,255,255)"></path></a><a title="PRODUCTION SECTORS"><path transform="translate(300,300)" d="M-231.52905469811216,1279.2162822723133A1300,1300 0 0,1 -1281.0582717693749,-221.11016333778608L-32.847647994086536,-5.66949136763554A33.33333333333333,33.33333333333333 0 0,0 -5.936642428156722,32.80041749416188Z" fill="rgb(191,191,64)" fill-rule="evenodd" stroke="rgb(255,255,255)" stroke-width="0.5"></path></a><a title="AGRICULTURE, FORESTRY, FISHING"><path transform="translate(300,300)" d="M-231.52905469811216,1279.2162822723133A1300,1300 0 0,1 -1088.9251782053752,710.0999621675753L-83.76347524656732,54.623074012890406A100,100 0 0,0 -17.809927284470167,98.40125248248563Z" fill="rgb(190,191,64)" fill-rule="evenodd" stroke="rgb(255,255,255)" stroke-width="0.5"></path></a><a title="31000: Agriculture, combination of purposes in Agriculture, Forestry, Fishing"><path transform="translate(300,300)" d="M-231.52905469811216,1279.2162822723133A1300,1300 0 0,1 -273.0443684410906,1271.0022709903417L-35.00568826167829,162.94900910132586A166.66666666666669,166.66666666666669 0 0,0 -29.683212140783617,164.0020874708094Z" fill="rgb(215,217,140)" fill-rule="evenodd" stroke="rgb(255,255,255)"></path></a><a title="Agriculture"><path transform="translate(300,300)" d="M-273.0443684410909,1271.0022709903417A1300,1300 0 0,1 -665.2113586949547,1116.9126412854373L-85.2835075249942,143.1939283699279A166.66666666666669,166.66666666666669 0 0,0 -35.00568826167832,162.94900910132586Z" fill="rgb(188,191,64)" fill-rule="evenodd" stroke="rgb(255,255,255)" stroke-width="0.5"></path></a><a title="31100: Agriculture, combinations of purposes in Agriculture, Agro-industry, Agribusiness"><path transform="translate(300,300)" d="M-273.0443684410909,1271.0022709903417A1300,1300 0 0,1 -314.2703211920459,1261.441304705791L-56.407493547290294,226.4125418702702A233.33333333333334,233.33333333333334 0 0,0 -49.00796356634965,228.1286127418562Z" fill="rgb(214,217,140)" fill-rule="evenodd" stroke="rgb(255,255,255)"></path></a><a title="31105: Agriculture, purpose unspecified or does not fit under any other applicable codes"><path transform="translate(300,300)" d="M-314.2703211920459,1261.441304705791A1300,1300 0 0,1 -355.1632234119724,1250.5435157305071L-63.74724522778992,224.45652846445003A233.33333333333334,233.33333333333334 0 0,0 -56.407493547290294,226.4125418702702Z" fill="rgb(214,217,140)" fill-rule="evenodd" stroke="rgb(255,255,255)"></path></a><a title="31110: Agricultural policy and administrative management"><path transform="translate(300,300)" d="M-355.1632234119724,1250.5435157305071A1300,1300 0 0,1 -395.6797385148766,1238.3204530850644L-71.0194402462599,222.26264542552437A233.33333333333334,233.33333333333334 0 0,0 -63.74724522778992,224.45652846445003Z" fill="rgb(213,217,140)" fill-rule="evenodd" stroke="rgb(255,255,255)"></path></a><a title="31120: Agricultural development"><path transform="translate(300,300)" d="M-395.6797385148766,1238.3204530850644A1300,1300 0 0,1 -435.7769287940758,1224.7850702595958L-78.21637183483412,219.83321773890182A233.33333333333334,233.33333333333334 0 0,0 -71.0194402462599,222.26264542552437Z" fill="rgb(212,217,140)" fill-rule="evenodd" stroke="rgb(255,255,255)"></path></a><a title="31130: Agricultural land resources"><path transform="translate(300,300)" d="M-435.7769287940758,1224.7850702595958A1300,1300 0 0,1 -475.41230092578223,1209.9517114862285L-85.33041298667887,217.1708200103487A233.33333333333334,233.33333333333334 0 0,0 -78.21637183483412,219.83321773890182Z" fill="rgb(212,217,140)" fill-rule="evenodd" stroke="rgb(255,255,255)"></path></a><a title="31140: Agricultural water resources"><path transform="translate(300,300)" d="M-475.4123009257825,1209.9517114862283A1300,1300 0 0,1 -514.5438510017498,1193.836096537665L-92.3540245387756,214.27827373752964A233.33333333333334,233.33333333333334 0 0,0 -85.33041298667892,217.17082001034868Z" fill="rgb(211,217,140)" fill-rule="evenodd" stroke="rgb(255,255,255)"></path></a><a title="31150: Agricultural inputs"><path transform="translate(300,300)" d="M-514.5438510017498,1193.836096537665A1300,1300 0 0,1 -553.1301090432557,1176.4553040680278L-99.27976316161002,211.15864431990244A233.33333333333334,233.33333333333334 0 0,0 -92.3540245387756,214.27827373752964Z" fill="rgb(210,217,140)" fill-rule="evenodd" stroke="rgb(255,255,255)"></path></a><a title="31181: Agricultural education/training"><path transform="translate(300,300)" d="M-553.1301090432557,1176.4553040680278A1300,1300 0 0,1 -591.1301829492512,1157.827753513615L-106.1002892473015,207.81523781013607A233.33333333333334,233.33333333333334 0 0,0 -99.27976316161002,211.15864431990244Z" fill="rgb(210,217,140)" fill-rule="evenodd" stroke="rgb(255,255,255)"></path></a><a title="31182: Agricultural research "><path transform="translate(300,300)" d="M-591.1301829492512,1157.827753513615A1300,1300 0 0,1 -628.5038018320951,1137.9731855727546L-112.80837468781193,204.2515974104944A233.33333333333334,233.33333333333334 0 0,0 -106.1002892473015,207.81523781013607Z" fill="rgb(209,217,140)" fill-rule="evenodd" stroke="rgb(255,255,255)"></path></a><a title="31191: Agricultural services, purpose"><path transform="translate(300,300)" d="M-628.5038018320945,1137.9731855727546A1300,1300 0 0,1 -665.2113586949562,1116.9126412854366L-119.39691053499213,200.47149971789887A233.33333333333334,233.33333333333334 0 0,0 -112.80837468781183,204.25159741049444Z" fill="rgb(208,217,140)" fill-rule="evenodd" stroke="rgb(255,255,255)"></path></a><a title="Forestry"><path transform="translate(300,300)" d="M-665.2113586949547,1116.9126412854373A1300,1300 0 0,1 -869.3454709849245,966.5601130183263L-111.45454756216982,123.91796320747775A166.66666666666669,166.66666666666669 0 0,0 -85.2835075249942,143.1939283699279Z" fill="rgb(176,191,64)" fill-rule="evenodd" stroke="rgb(255,255,255)" stroke-width="0.5"></path></a><a title="31205: Forestry, purpose unspecified or does not fit under any other applicable codes"><path transform="translate(300,300)" d="M-665.2113586949547,1116.9126412854373A1300,1300 0 0,1 -701.2139524056512,1094.6684397349022L-125.85891453434766,196.4789507216491A233.33333333333334,233.33333333333334 0 0,0 -119.39691053499187,200.47149971789904Z" fill="rgb(207,217,140)" fill-rule="evenodd" stroke="rgb(255,255,255)"></path></a><a title="31210: Forestry policy and administrative management"><path transform="translate(300,300)" d="M-701.2139524056506,1094.6684397349024A1300,1300 0 0,1 -736.4734289224375,1071.26415439481L-132.18753852454006,192.27818155804283A233.33333333333334,233.33333333333334 0 0,0 -125.85891453434755,196.47895072164917Z" fill="rgb(207,217,140)" fill-rule="evenodd" stroke="rgb(255,255,255)"></path></a><a title="31220: Forestry development"><path transform="translate(300,300)" d="M-736.4734289224375,1071.26415439481A1300,1300 0 0,1 -770.9524217280657,1046.7245881470592L-138.376075694781,187.87364402639525A233.33333333333334,233.33333333333334 0 0,0 -132.18753852454006,192.27818155804283Z" fill="rgb(206,217,140)" fill-rule="evenodd" stroke="rgb(255,255,255)"></path></a><a title="31281: Forestry education/training"><path transform="translate(300,300)" d="M-770.9524217280652,1046.7245881470596A1300,1300 0 0,1 -804.6143914292518,1021.0757469967323L-144.4179676924298,183.27000587120835A233.33333333333334,233.33333333333334 0 0,0 -138.37607569478095,187.8736440263953Z" fill="rgb(205,217,140)" fill-rule="evenodd" stroke="rgb(255,255,255)"></path></a><a title="31282: Forestry research"><path transform="translate(300,300)" d="M-804.6143914292518,1021.0757469967323A1300,1300 0 0,1 -837.4236644795988,994.344812512018L-150.3068115732613,178.47214583549044A233.33333333333334,233.33333333333334 0 0,0 -144.4179676924298,183.27000587120835Z" fill="rgb(205,217,140)" fill-rule="evenodd" stroke="rgb(255,255,255)"></path></a><a title="31291: Forestry services"><path transform="translate(300,300)" d="M-837.4236644795988,994.344812512018A1300,1300 0 0,1 -869.3454709849253,966.5601130183255L-156.0363665870379,173.48514849046867A233.33333333333334,233.33333333333334 0 0,0 -150.3068115732613,178.47214583549044Z" fill="rgb(204,217,140)" fill-rule="evenodd" stroke="rgb(255,255,255)"></path></a><a title="Fishing"><path transform="translate(300,300)" d="M-869.3454709849245,966.5601130183263A1300,1300 0 0,1 -1088.9251782053752,710.0999621675753L-139.60579207761222,91.03845668815069A166.66666666666669,166.66666666666669 0 0,0 -111.45454756216982,123.91796320747775Z" fill="rgb(169,191,64)" fill-rule="evenodd" stroke="rgb(255,255,255)" stroke-width="0.5"></path></a><a title="31300: Fishing, combination of activities"><path transform="translate(300,300)" d="M-869.3454709849245,966.5601130183263A1300,1300 0 0,1 -900.3459815509448,937.75109357711L-161.60056079119522,168.3142988471736A233.33333333333334,233.33333333333334 0 0,0 -156.03636658703775,173.48514849046884Z" fill="rgb(203,217,140)" fill-rule="evenodd" stroke="rgb(255,255,255)"></path></a><a title="31305: Fishing, purpose unspecified or does not fit under any other applicable codes"><path transform="translate(300,300)" d="M-900.3459815509443,937.7510935771105A1300,1300 0 0,1 -930.3923431342432,907.9482847812272L-166.9934974856334,162.96507675560488A233.33333333333334,233.33333333333334 0 0,0 -161.60056079119514,168.3142988471737Z" fill="rgb(202,217,140)" fill-rule="evenodd" stroke="rgb(255,255,255)"></path></a><a title="31310: Fishing policy and administrative management"><path transform="translate(300,300)" d="M-930.3923431342432,907.9482847812272A1300,1300 0 0,1 -959.452713858557,877.1832703998921L-172.2094614617923,157.44315109741652A233.33333333333334,233.33333333333334 0 0,0 -166.9934974856334,162.96507675560488Z" fill="rgb(201,217,140)" fill-rule="evenodd" stroke="rgb(255,255,255)"></path></a><a title="31320: Fishery development"><path transform="translate(300,300)" d="M-959.4527138585565,877.1832703998924A1300,1300 0 0,1 -987.4962967594598,845.4886539075214L-177.24292505939025,151.7543737782731A233.33333333333334,233.33333333333334 0 0,0 -172.20946146179222,157.4431510974166Z" fill="rgb(201,217,140)" fill-rule="evenodd" stroke="rgb(255,255,255)"></path></a><a title="31330: Fishing Development"><path transform="translate(300,300)" d="M-987.4962967594598,845.4886539075214A1300,1300 0 0,1 -1014.4933724217003,812.8980239319352L-182.08855402440776,145.90477352624478A233.33333333333334,233.33333333333334 0 0,0 -177.24292505939025,151.7543737782731Z" fill="rgb(200,217,140)" fill-rule="evenodd" stroke="rgb(255,255,255)"></path></a><a title="31381: Fishery education/training"><path transform="translate(300,300)" d="M-1014.4933724217003,812.8980239319352A1300,1300 0 0,1 -1040.4153304745898,779.4459186585366L-186.74121316210588,139.90054950281427A233.33333333333334,233.33333333333334 0 0,0 -182.08855402440776,145.90477352624478Z" fill="rgb(200,217,140)" fill-rule="evenodd" stroke="rgb(255,255,255)"></path></a><a title="31382: Fishery research"><path transform="translate(300,300)" d="M-1040.4153304745896,779.445918658537A1300,1300 0 0,1 -1065.234699912078,745.1677892281879L-191.19597177909094,133.7480647332645A233.33333333333334,233.33333333333334 0 0,0 -186.74121316210582,139.90054950281433Z" fill="rgb(199,217,140)" fill-rule="evenodd" stroke="rgb(255,255,255)"></path></a><a title="31391: Fishery services"><path transform="translate(300,300)" d="M-1065.234699912078,745.1677892281879A1300,1300 0 0,1 -1088.925178205376,710.0999621675743L-195.44810890865722,127.45383936341076A233.33333333333334,233.33333333333334 0 0,0 -191.19597177909094,133.7480647332645Z" fill="rgb(198,217,140)" fill-rule="evenodd" stroke="rgb(255,255,255)"></path></a><a title="INDUSTRY, MINING, CONSTRUCTION"><path transform="translate(300,300)" d="M-1088.9251782053752,710.0999621675753A1300,1300 0 0,1 -1294.7936451330781,116.2300155854613L-99.59951116408293,8.94077042965087A100,100 0 0,0 -83.76347524656732,54.623074012890406Z" fill="rgb(159,191,64)" fill-rule="evenodd" stroke="rgb(255,255,255)" stroke-width="0.5"></path></a><a title="32000: Industry, combination of purposes Industry, Mining and Construction"><path transform="translate(300,300)" d="M-1088.9251782053752,710.0999621675753A1300,1300 0 0,1 -1111.4616591772715,674.2796008918752L-142.49508450990663,86.44610267844556A166.66666666666669,166.66666666666669 0 0,0 -139.60579207761222,91.03845668815069Z" fill="rgb(197,217,140)" fill-rule="evenodd" stroke="rgb(255,255,255)"></path></a><a title="Industry"><path transform="translate(300,300)" d="M-1111.4616591772713,674.2796008918757A1300,1300 0 0,1 -1247.6115123818336,365.32932290238335L-159.9501938951069,46.83709267979274A166.66666666666669,166.66666666666669 0 0,0 -142.4950845099066,86.44610267844561Z" fill="rgb(157,191,64)" fill-rule="evenodd" stroke="rgb(255,255,255)" stroke-width="0.5"></path></a><a title="32105: Industry, purpose unspecified (includes manufacturing of goods not specified below) or does not fit under any other applicable codes"><path transform="translate(300,300)" d="M-1111.4616591772713,674.2796008918757A1300,1300 0 0,1 -1132.8202596086103,637.7446663205272L-203.32671326308392,114.46699139086387A233.33333333333334,233.33333333333334 0 0,0 -199.49311831386922,121.02454374982385Z" fill="rgb(196,217,140)" fill-rule="evenodd" stroke="rgb(255,255,255)"></path></a><a title="32110: Industrial policy and administrative management"><path transform="translate(300,300)" d="M-1132.8202596086103,637.7446663205272A1300,1300 0 0,1 -1152.9783445487271,600.5338766478349L-206.94483107284844,107.78813170602164A233.33333333333334,233.33333333333334 0 0,0 -203.32671326308392,114.46699139086387Z" fill="rgb(195,217,140)" fill-rule="evenodd" stroke="rgb(255,255,255)"></path></a><a title="32120: Industrial development"><path transform="translate(300,300)" d="M-1152.9783445487271,600.5338766478349A1300,1300 0 0,1 -1171.91455130302,562.6866663110482L-210.3436374133626,100.99504267121377A233.33333333333334,233.33333333333334 0 0,0 -206.94483107284844,107.78813170602164Z" fill="rgb(194,217,140)" fill-rule="evenodd" stroke="rgb(255,255,255)"></path></a><a title="32130: Small and medium-sized enterprises (SME) development"><path transform="translate(300,300)" d="M-1171.91455130302,562.6866663110486A1300,1300 0 0,1 -1189.608812072242,524.2431441993966L-213.51953037194087,94.09492331784041A233.33333333333334,233.33333333333334 0 0,0 -210.3436374133626,100.99504267121387Z" fill="rgb(194,217,140)" fill-rule="evenodd" stroke="rgb(255,255,255)"></path></a><a title="32140: Cottage industries and handicraft"><path transform="translate(300,300)" d="M-1189.608812072242,524.2431441993966A1300,1300 0 0,1 -1206.0423752195122,485.24405114836526L-216.46914427016887,87.09508610355275A233.33333333333334,233.33333333333334 0 0,0 -213.51953037194087,94.09492331784041Z" fill="rgb(193,217,140)" fill-rule="evenodd" stroke="rgb(255,255,255)"></path></a><a title="32181: Industry education and training"><path transform="translate(300,300)" d="M-1206.042375219512,485.2440511483659A1300,1300 0 0,1 -1221.1978251425166,445.73071676426696L-219.18935323070815,80.00294916281716A233.33333333333334,233.33333333333334 0 0,0 -216.4691442701688,87.09508610355284Z" fill="rgb(193,217,140)" fill-rule="evenodd" stroke="rgb(255,255,255)"></path></a><a title="32182: Technological research and development"><path transform="translate(300,300)" d="M-1221.1978251425166,445.73071676426696A1300,1300 0 0,1 -1235.0591007298353,405.7450156248507L-221.67727448997047,72.82602844548602A233.33333333333334,233.33333333333334 0 0,0 -219.18935323070815,80.00294916281716Z" fill="rgb(192,217,140)" fill-rule="evenodd" stroke="rgb(255,255,255)"></path></a><a title="32191: Industry services"><path transform="translate(300,300)" d="M-1235.0591007298353,405.7450156248507A1300,1300 0 0,1 -1247.6115123818342,365.3293229023812L-223.93027145314974,65.57192975170945A233.33333333333334,233.33333333333334 0 0,0 -221.67727448997047,72.82602844548602Z" fill="rgb(191,217,140)" fill-rule="evenodd" stroke="rgb(255,255,255)"></path></a><a title="Mineral resources and mining"><path transform="translate(300,300)" d="M-1247.6115123818336,365.32932290238335A1300,1300 0 0,1 -1290.3243189441807,158.31346102349013L-165.42619473643344,20.296597567114123A166.66666666666669,166.66666666666669 0 0,0 -159.9501938951069,46.83709267979274Z" fill="rgb(148,191,64)" fill-rule="evenodd" stroke="rgb(255,255,255)" stroke-width="0.5"></path></a><a title="32200: Mineral resources and mining, combination of purposes"><path transform="translate(300,300)" d="M-1247.6115123818336,365.32932290238335A1300,1300 0 0,1 -1258.8417575780884,324.52646945620506L-225.94595648837486,58.24834067162655A233.33333333333334,233.33333333333334 0 0,0 -223.93027145314963,65.57192975170983Z" fill="rgb(190,217,140)" fill-rule="evenodd" stroke="rgb(255,255,255)"></path></a><a title="32205: Mineral resources and mining, purpose unspecified or does not fit under any other applicable codes"><path transform="translate(300,300)" d="M-1258.8417575780884,324.52646945620506A1300,1300 0 0,1 -1268.737934974839,283.37969644239075L-227.72219345702237,50.863022438377826A233.33333333333334,233.33333333333334 0 0,0 -225.94595648837486,58.24834067162655Z" fill="rgb(189,217,140)" fill-rule="evenodd" stroke="rgb(255,255,255)"></path></a><a title="32210: Mineral/mining policy and administrative management"><path transform="translate(300,300)" d="M-1268.7379349748387,283.3796964423913A1300,1300 0 0,1 -1277.2895570175342,241.93260948857514L-229.25709997750613,43.42380170307759A233.33333333333334,233.33333333333334 0 0,0 -227.72219345702234,50.863022438377925Z" fill="rgb(189,217,140)" fill-rule="evenodd" stroke="rgb(255,255,255)"></path></a><a title="32220: Mineral/Metal prospection and exploration"><path transform="translate(300,300)" d="M-1277.2895570175342,241.93260948857514A1300,1300 0 0,1 -1284.487561055105,200.22913248253369L-230.54904942014707,35.938562240454765A233.33333333333334,233.33333333333334 0 0,0 -229.25709997750613,43.42380170307759Z" fill="rgb(188,217,140)" fill-rule="evenodd" stroke="rgb(255,255,255)"></path></a><a title="32281: Mining Education / Training"><path transform="translate(300,300)" d="M-1284.4875610551048,200.22913248253423A1300,1300 0 0,1 -1290.3243189441807,158.31346102348897L-231.59667263100684,28.41523659395956A233.33333333333334,233.33333333333334 0 0,0 -230.54904942014704,35.938562240454864Z" fill="rgb(187,217,140)" fill-rule="evenodd" stroke="rgb(255,255,255)"></path></a><a title="Construction"><path transform="translate(300,300)" d="M-1290.3243189441807,158.31346102348954A1300,1300 0 0,1 -1294.7936451330781,116.23001558546073L-165.99918527347157,14.901284049418043A166.66666666666669,166.66666666666669 0 0,0 -165.42619473643347,20.29659756711405Z" fill="rgb(141,191,64)" fill-rule="evenodd" stroke="rgb(255,255,255)" stroke-width="0.5"></path></a><a title="32310: Construction policy and administrative management"><path transform="translate(300,300)" d="M-1290.3243189441807,158.31346102348954A1300,1300 0 0,1 -1294.7936451330781,116.23001558546073L-232.3988593828602,20.86179766918526A233.33333333333334,233.33333333333334 0 0,0 -231.59667263100684,28.415236593959666Z" fill="rgb(186,217,140)" fill-rule="evenodd" stroke="rgb(255,255,255)"></path></a><a title="TRADE AND TOURISM"><path transform="translate(300,300)" d="M-1294.7936451330781,116.2300155854613A1300,1300 0 0,1 -1281.0582717693749,-221.11016333778608L-98.54294398225962,-17.00847410290662A100,100 0 0,0 -99.59951116408293,8.94077042965087Z" fill="rgb(139,191,64)" fill-rule="evenodd" stroke="rgb(255,255,255)" stroke-width="0.5"></path></a><a title="Trade policy and regulations"><path transform="translate(300,300)" d="M-1294.7936451330781,116.2300155854613A1300,1300 0 0,1 -1287.5765162602297,-179.295049499896L-165.07391234105512,-22.98654480767898A166.66666666666669,166.66666666666669 0 0,0 -165.99918527347157,14.901284049418118Z" fill="rgb(138,191,64)" fill-rule="evenodd" stroke="rgb(255,255,255)" stroke-width="0.5"></path></a><a title="33100: Trade policy and regulations, combination of purposes"><path transform="translate(300,300)" d="M-1294.7936451330781,116.2300155854613A1300,1300 0 0,1 -1297.890803216988,74.02339444230908L-232.9547595517671,13.286250284517015A233.33333333333334,233.33333333333334 0 0,0 -232.3988593828602,20.861797669185364Z" fill="rgb(184,217,140)" fill-rule="evenodd" stroke="rgb(255,255,255)"></path></a><a title="33105: Trade policy and regulations, purpose unspecified (includes trade and trade promotion activities) or does not fit under any other applicable codes"><path transform="translate(300,300)" d="M-1297.890803216988,74.02339444230908A1300,1300 0 0,1 -1299.6125109574205,31.738326404349763L-233.26378401799855,5.696622687960214A233.33333333333334,233.33333333333334 0 0,0 -232.9547595517671,13.286250284517015Z" fill="rgb(184,217,140)" fill-rule="evenodd" stroke="rgb(255,255,255)"></path></a><a title="33110: Trade policy and administrative management"><path transform="translate(300,300)" d="M-1299.6125109574205,31.73832640435034A1300,1300 0 0,1 -1299.9569437605824,-10.580376583364425L-233.32560529036095,-1.8990419508602814A233.33333333333334,233.33333333333334 0 0,0 -233.26378401799855,5.696622687960318Z" fill="rgb(183,217,140)" fill-rule="evenodd" stroke="rgb(255,255,255)"></path></a><a title="33120: Trade facilitation"><path transform="translate(300,300)" d="M-1299.9569437605824,-10.580376583364425A1300,1300 0 0,1 -1298.9237366110078,-52.88786693087122L-233.14015785325782,-9.492694064515348A233.33333333333334,233.33333333333334 0 0,0 -233.32560529036095,-1.8990419508602814Z" fill="rgb(182,217,140)" fill-rule="evenodd" stroke="rgb(255,255,255)"></path></a><a title="33130: Regional trade agreements (RTAs)"><path transform="translate(300,300)" d="M-1298.9237366110078,-52.88786693087064A1300,1300 0 0,1 -1296.513984458383,-95.13930893089277L-232.70763823612003,-17.076286218365368A233.33333333333334,233.33333333333334 0 0,0 -233.14015785325782,-9.492694064515243Z" fill="rgb(182,217,140)" fill-rule="evenodd" stroke="rgb(255,255,255)"></path></a><a title="33140: Multilateral trade negotiations"><path transform="translate(300,300)" d="M-1296.513984458383,-95.13930893089277A1300,1300 0 0,1 -1292.7302410571674,-137.289926273846L-232.0285048051326,-24.641781638895434A233.33333333333334,233.33333333333334 0 0,0 -232.70763823612003,-17.076286218365368Z" fill="rgb(181,217,140)" fill-rule="evenodd" stroke="rgb(255,255,255)"></path></a><a title="33181: Trade education/training"><path transform="translate(300,300)" d="M-1292.7302410571674,-137.289926273846A1300,1300 0 0,1 -1287.5765162602297,-179.29504949989715L-231.1034772774771,-32.18116273075077A233.33333333333334,233.33333333333334 0 0,0 -232.0285048051326,-24.641781638895434Z" fill="rgb(180,217,140)" fill-rule="evenodd" stroke="rgb(255,255,255)"></path></a><a title="Tourism"><path transform="translate(300,300)" d="M-1287.5765162602297,-179.295049499896A1300,1300 0 0,1 -1281.0582717693749,-221.11016333778662L-164.2382399704327,-28.347456838177774A166.66666666666669,166.66666666666669 0 0,0 -165.07391234105512,-22.98654480767898Z" fill="rgb(130,191,64)" fill-rule="evenodd" stroke="rgb(255,255,255)" stroke-width="0.5"></path></a><a title="33210: Tourism policy and administrative management"><path transform="translate(300,300)" d="M-1287.5765162602297,-179.295049499896A1300,1300 0 0,1 -1281.0582717693749,-221.11016333778662L-229.93353595860575,-39.68643957344888A233.33333333333334,233.33333333333334 0 0,0 -231.10347727747714,-32.18116273075057Z" fill="rgb(179,217,140)" fill-rule="evenodd" stroke="rgb(255,255,255)"></path></a><a title="MULTISECTOR/CROSS-CUTTING"><path transform="translate(300,300)" d="M-1281.0582717693749,-221.11016333778608A1300,1300 0 0,1 -1001.1274624979452,-829.303203799687L-25.669934935844744,-21.264184712812483A33.33333333333333,33.33333333333333 0 0,0 -32.847647994086536,-5.66949136763554Z" fill="rgb(128,191,64)" fill-rule="evenodd" stroke="rgb(255,255,255)" stroke-width="0.5"></path></a><a title="GENERAL ENVIRONMENTAL PROTECTION"><path transform="translate(300,300)" d="M-1281.0582717693749,-221.11016333778608A1300,1300 0 0,1 -1162.6004675416445,-581.6873325696114L-89.43080519551113,-44.74517942843164A100,100 0 0,0 -98.54294398225962,-17.00847410290662Z" fill="rgb(124,191,64)" fill-rule="evenodd" stroke="rgb(255,255,255)" stroke-width="0.5"></path></a><a title="41000: General environmental protection, combinations of purposes"><path transform="translate(300,300)" d="M-1281.0582717693749,-221.11016333778608A1300,1300 0 0,1 -1273.1824153472598,-262.6909538802534L-163.22851478811026,-33.678327420545315A166.66666666666669,166.66666666666669 0 0,0 -164.23823997043272,-28.347456838177703Z" fill="rgb(175,217,140)" fill-rule="evenodd" stroke="rgb(255,255,255)"></path></a><a title="41005: General environmental protection, purpose unspecified (includes miscellaneous conservation and protection measures not mentioned below) or does not fit under any other applicable codes"><path transform="translate(300,300)" d="M-1273.1824153472598,-262.6909538802534A1300,1300 0 0,1 -1263.9572934968373,-303.9933555460545L-162.0458068585689,-38.973507121289046A166.66666666666669,166.66666666666669 0 0,0 -163.22851478811026,-33.678327420545315Z" fill="rgb(173,217,140)" fill-rule="evenodd" stroke="rgb(255,255,255)"></path></a><a title="41010: Environmental policy and administrative management"><path transform="translate(300,300)" d="M-1263.9572934968373,-303.9933555460545A1300,1300 0 0,1 -1253.3926826160803,-344.9735977788244L-160.69136956616416,-44.22738433061852A166.66666666666669,166.66666666666669 0 0,0 -162.0458068585689,-38.973507121289046Z" fill="rgb(171,217,140)" fill-rule="evenodd" stroke="rgb(255,255,255)"></path></a><a title="41020: Biosphere protection"><path transform="translate(300,300)" d="M-1253.3926826160803,-344.9735977788239A1300,1300 0 0,1 -1241.4997786373651,-385.5882514332793L-159.16663828684167,-49.43439120939479A166.66666666666669,166.66666666666669 0 0,0 -160.69136956616416,-44.227384330618456Z" fill="rgb(169,217,140)" fill-rule="evenodd" stroke="rgb(255,255,255)"></path></a><a title="41030: Bio-diversity"><path transform="translate(300,300)" d="M-1241.4997786373651,-385.5882514332793A1300,1300 0 0,1 -1228.2911851624904,-425.79427479960856L-157.47322886698598,-54.58900958969341A166.66666666666669,166.66666666666669 0 0,0 -159.16663828684167,-49.43439120939479Z" fill="rgb(167,217,140)" fill-rule="evenodd" stroke="rgb(255,255,255)"></path></a><a title="41040: Site preservation"><path transform="translate(300,300)" d="M-1228.2911851624906,-425.794274799608A1300,1300 0 0,1 -1213.7809001059093,-465.54905921727357L-155.61293591101403,-59.68577682272739A166.66666666666669,166.66666666666669 0 0,0 -157.473228866986,-54.58900958969334Z" fill="rgb(165,217,140)" fill-rule="evenodd" stroke="rgb(255,255,255)"></path></a><a title="41050: Flood prevention/control"><path transform="translate(300,300)" d="M-1213.7809001059093,-465.54905921727357A1300,1300 0 0,1 -1197.984300860323,-504.81047422988684L-153.5877308795286,-64.71929156793422A166.66666666666669,166.66666666666669 0 0,0 -155.61293591101403,-59.68577682272739Z" fill="rgb(163,217,140)" fill-rule="evenodd" stroke="rgb(255,255,255)"></path></a><a title="41081: Environmental education/ training"><path transform="translate(300,300)" d="M-1197.9843008603232,-504.8104742298863A1300,1300 0 0,1 -1180.9181280003656,-543.5369122333016L-151.3997600000469,-69.68421951708996A166.66666666666669,166.66666666666669 0 0,0 -153.58773087952864,-64.71929156793415Z" fill="rgb(161,217,140)" fill-rule="evenodd" stroke="rgb(255,255,255)"></path></a><a title="41082: Environmental research"><path transform="translate(300,300)" d="M-1180.9181280003656,-543.5369122333016A1300,1300 0 0,1 -1162.6004675416434,-581.6873325696134L-149.05134199251842,-74.57529904738635A166.66666666666669,166.66666666666669 0 0,0 -151.3997600000469,-69.68421951708996Z" fill="rgb(159,217,140)" fill-rule="evenodd" stroke="rgb(255,255,255)"></path></a><a title="WOMEN"><path transform="translate(300,300)" d="M-1162.6004675416443,-581.6873325696118A1300,1300 0 0,1 -1143.0507317739332,-619.2213050203263L-87.92697936722563,-47.63240807848664A100,100 0 0,0 -89.4308051955111,-44.74517942843168Z" fill="rgb(92,191,64)" fill-rule="evenodd" stroke="rgb(255,255,255)" stroke-width="0.5"></path></a><a title="42010: Women in development"><path transform="translate(300,300)" d="M-1162.6004675416443,-581.6873325696118A1300,1300 0 0,1 -1143.0507317739332,-619.2213050203263L-146.54496561204272,-79.38734679747773A166.66666666666669,166.66666666666669 0 0,0 -149.0513419925185,-74.57529904738614Z" fill="rgb(156,217,140)" fill-rule="evenodd" stroke="rgb(255,255,255)"></path></a><a title="OTHER"><path transform="translate(300,300)" d="M-1143.0507317739334,-619.2213050203258A1300,1300 0 0,1 -1001.1274624979452,-829.303203799687L-77.00980480753424,-63.79255413843746A100,100 0 0,0 -87.92697936722564,-47.6324080784866Z" fill="rgb(86,191,64)" fill-rule="evenodd" stroke="rgb(255,255,255)" stroke-width="0.5"></path></a><a title="43010: Multisector aid"><path transform="translate(300,300)" d="M-1143.0507317739334,-619.2213050203258A1300,1300 0 0,1 -1122.2896386888472,-656.0990526526134L-143.88328701139068,-84.11526316059147A166.66666666666669,166.66666666666669 0 0,0 -146.54496561204274,-79.38734679747768Z" fill="rgb(152,217,140)" fill-rule="evenodd" stroke="rgb(255,255,255)"></path></a><a title="43030: Urban development and management"><path transform="translate(300,300)" d="M-1122.2896386888472,-656.0990526526134A1300,1300 0 0,1 -1100.339190023777,-692.2814939732378L-141.06912692612528,-88.75403768887666A166.66666666666669,166.66666666666669 0 0,0 -143.88328701139068,-84.11526316059147Z" fill="rgb(150,217,140)" fill-rule="evenodd" stroke="rgb(255,255,255)"></path></a><a title="43040: Rural development"><path transform="translate(300,300)" d="M-1100.3391900237773,-692.2814939732374A1300,1300 0 0,1 -1077.2226479453718,-727.7302843454859L-138.1054676853041,-93.29875440326744A166.66666666666669,166.66666666666669 0 0,0 -141.0691269261253,-88.75403768887661Z" fill="rgb(148,217,140)" fill-rule="evenodd" stroke="rgb(255,255,255)"></path></a><a title="43050: Non-agricultural alternative development"><path transform="translate(300,300)" d="M-1077.2226479453718,-727.7302843454859A1300,1300 0 0,1 -1052.9645103972657,-762.4078566252099L-134.9954500509315,-97.74459700323204A166.66666666666669,166.66666666666669 0 0,0 -138.1054676853041,-93.29875440326744Z" fill="rgb(146,217,140)" fill-rule="evenodd" stroke="rgb(255,255,255)"></path></a><a title="43081: Multisector education/training"><path transform="translate(300,300)" d="M-1052.9645103972657,-762.4078566252099A1300,1300 0 0,1 -1027.5904851381858,-796.2774609729122L-131.74236988951102,-102.0868539708862A166.66666666666669,166.66666666666669 0 0,0 -134.9954500509315,-97.74459700323204Z" fill="rgb(144,217,140)" fill-rule="evenodd" stroke="rgb(255,255,255)"></path></a><a title="43082: Research/scientific institutions"><path transform="translate(300,300)" d="M-1027.5904851381863,-796.2774609729116A1300,1300 0 0,1 -1001.1274624979444,-829.3032037996879L-128.34967467922365,-106.32092356406257A166.66666666666669,166.66666666666669 0 0,0 -131.74236988951108,-102.08685397088612Z" fill="rgb(142,217,140)" fill-rule="evenodd" stroke="rgb(255,255,255)"></path></a><a title="COMMODITY AID AND GENERAL PROGRAMME ASSISTANCE"><path transform="translate(300,300)" d="M-1001.1274624979452,-829.303203799687A1300,1300 0 0,1 -853.4976378555882,-980.582368888474L-21.88455481680995,-25.14313766380702A33.33333333333333,33.33333333333333 0 0,0 -25.669934935844744,-21.264184712812483Z" fill="rgb(64,191,64)" fill-rule="evenodd" stroke="rgb(255,255,255)" stroke-width="0.5"></path></a><a title="GENERAL BUDGET SUPPORT"><path transform="translate(300,300)" d="M-1001.1274624979452,-829.303203799687A1300,1300 0 0,1 -973.603486880192,-861.4500858057487L-74.89257591386092,-66.26539121582682A100,100 0 0,0 -77.00980480753424,-63.79255413843746Z" fill="rgb(64,191,71)" fill-rule="evenodd" stroke="rgb(255,255,255)" stroke-width="0.5"></path></a><a title="51010: General budget support"><path transform="translate(300,300)" d="M-1001.1274624979452,-829.303203799687A1300,1300 0 0,1 -973.603486880192,-861.4500858057487L-124.8209598564349,-110.44231869304471A166.66666666666669,166.66666666666669 0 0,0 -128.34967467922377,-106.32092356406245Z" fill="rgb(140,217,149)" fill-rule="evenodd" stroke="rgb(255,255,255)"></path></a><a title="DEVELOPMENT AID/FOOD SECURITY ASSISTANCE"><path transform="translate(300,300)" d="M-973.603486880192,-861.4500858057487A1300,1300 0 0,1 -945.0477270421324,-892.6840390712154L-72.69597900324095,-68.66800300547811A100,100 0 0,0 -74.89257591386092,-66.26539121582682Z" fill="rgb(64,191,85)" fill-rule="evenodd" stroke="rgb(255,255,255)" stroke-width="0.5"></path></a><a title="52010: Food aid/Food security programmes"><path transform="translate(300,300)" d="M-973.603486880192,-861.4500858057487A1300,1300 0 0,1 -945.0477270421324,-892.6840390712154L-121.1599650054016,-114.44667167579686A166.66666666666669,166.66666666666669 0 0,0 -124.8209598564349,-110.44231869304471Z" fill="rgb(140,217,157)" fill-rule="evenodd" stroke="rgb(255,255,255)"></path></a><a title="OTHER COMMODITY ASSISTANCE"><path transform="translate(300,300)" d="M-945.0477270421328,-892.6840390712151A1300,1300 0 0,1 -853.4976378555882,-980.582368888474L-65.65366445042986,-75.42941299142107A100,100 0 0,0 -72.69597900324098,-68.66800300547808Z" fill="rgb(64,191,99)" fill-rule="evenodd" stroke="rgb(255,255,255)" stroke-width="0.5"></path></a><a title="53030: Import support (capital goods)"><path transform="translate(300,300)" d="M-945.0477270421328,-892.6840390712151A1300,1300 0 0,1 -915.4904451826973,-922.9719631598713L-117.37056989521761,-118.32973886665017A166.66666666666669,166.66666666666669 0 0,0 -121.15996500540166,-114.44667167579682Z" fill="rgb(140,217,166)" fill-rule="evenodd" stroke="rgb(255,255,255)"></path></a><a title="53040: Import support (commodities)"><path transform="translate(300,300)" d="M-915.4904451826973,-922.9719631598713A1300,1300 0 0,1 -884.9629648719316,-952.2817601976217L-113.45679036819637,-122.08740515354125A166.66666666666669,166.66666666666669 0 0,0 -117.37056989521761,-118.32973886665017Z" fill="rgb(140,217,170)" fill-rule="evenodd" stroke="rgb(255,255,255)"></path></a><a title="53050: Export Support"><path transform="translate(300,300)" d="M-884.9629648719316,-952.2817601976217A1300,1300 0 0,1 -853.4976378555868,-980.5823688884751L-109.4227740840496,-125.71568831903528A166.66666666666669,166.66666666666669 0 0,0 -113.45679036819637,-122.08740515354125Z" fill="rgb(140,217,174)" fill-rule="evenodd" stroke="rgb(255,255,255)"></path></a><a title="ACTION RELATING TO DEBT"><path transform="translate(300,300)" d="M-853.4976378555878,-980.5823688884742A1300,1300 0 0,1 -718.9389346464523,-1083.109785870954L-18.434331657601337,-27.772045791562924A33.33333333333333,33.33333333333333 0 0,0 -21.88455481680994,-25.14313766380703Z" fill="rgb(64,191,128)" fill-rule="evenodd" stroke="rgb(255,255,255)" stroke-width="0.5"></path></a><a title="60010: Action relating to debt"><path transform="translate(300,300)" d="M-853.4976378555878,-980.5823688884742A1300,1300 0 0,1 -821.1278097700962,-1007.8437974320051L-63.16367767462279,-77.5264459563081A100,100 0 0,0 -65.65366445042983,-75.4294129914211Z" fill="rgb(140,217,179)" fill-rule="evenodd" stroke="rgb(255,255,255)"></path></a><a title="60020: Debt forgiveness "><path transform="translate(300,300)" d="M-821.1278097700962,-1007.8437974320051A1300,1300 0 0,1 -787.8877848042603,-1034.0371553074076L-60.60675267725079,-79.54131963903134A100,100 0 0,0 -63.16367767462279,-77.5264459563081Z" fill="rgb(140,217,179)" fill-rule="evenodd" stroke="rgb(255,255,255)"></path></a><a title="60030: Relief of multilateral debt"><path transform="translate(300,300)" d="M-787.8877848042611,-1034.037155307407A1300,1300 0 0,1 -753.8127893451103,-1059.1346838904599L-57.9855991803931,-81.4718987608046A100,100 0 0,0 -60.60675267725085,-79.5413196390313Z" fill="rgb(140,217,180)" fill-rule="evenodd" stroke="rgb(255,255,255)"></path></a><a title="60040: Rescheduling and refinancing"><path transform="translate(300,300)" d="M-753.8127893451103,-1059.1346838904599A1300,1300 0 0,1 -718.9389346464512,-1083.109785870955L-55.302994972803944,-83.31613737468884A100,100 0 0,0 -57.9855991803931,-81.4718987608046Z" fill="rgb(140,217,180)" fill-rule="evenodd" stroke="rgb(255,255,255)"></path></a><a title="HUMANITARIAN AID"><path transform="translate(300,300)" d="M-718.9389346464523,-1083.109785870954A1300,1300 0 0,1 -375.47122284388223,-1244.596866787041L-9.627467252407236,-31.91274017402669A33.33333333333333,33.33333333333333 0 0,0 -18.434331657601337,-27.772045791562924Z" fill="rgb(64,191,131)" fill-rule="evenodd" stroke="rgb(255,255,255)" stroke-width="0.5"></path></a><a title="70000: Emergency Assistance and Reconstruction, combinations of purposes"><path transform="translate(300,300)" d="M-718.9389346464523,-1083.109785870954A1300,1300 0 0,1 -683.3031785596736,-1105.937053439411L-52.56178296612873,-85.07208103380086A100,100 0 0,0 -55.30299497280402,-83.31613737468878Z" fill="rgb(140,217,181)" fill-rule="evenodd" stroke="rgb(255,255,255)"></path></a><a title="EMERGENCY RESPONSE"><path transform="translate(300,300)" d="M-683.3031785596736,-1105.937053439411A1300,1300 0 0,1 -455.65497936760477,-1217.5296874316896L-35.05038302827729,-93.65612980243766A100,100 0 0,0 -52.56178296612873,-85.07208103380086Z" fill="rgb(64,191,132)" fill-rule="evenodd" stroke="rgb(255,255,255)" stroke-width="0.5"></path></a><a title="72000: Emergency Response, combination of purposes"><path transform="translate(300,300)" d="M-683.3031785596736,-1105.937053439411A1300,1300 0 0,1 -646.9432863673613,-1127.5922952132116L-82.94144697017454,-144.56311477092459A166.66666666666669,166.66666666666669 0 0,0 -87.60297161021457,-141.78680172300145Z" fill="rgb(140,217,181)" fill-rule="evenodd" stroke="rgb(255,255,255)"></path></a><a title="72010: Material relief assistance and services"><path transform="translate(300,300)" d="M-646.9432863673613,-1127.5922952132116A1300,1300 0 0,1 -609.8977907612342,-1148.0525618736128L-78.1920244565685,-147.18622588123245A166.66666666666669,166.66666666666669 0 0,0 -82.94144697017454,-144.56311477092459Z" fill="rgb(140,217,182)" fill-rule="evenodd" stroke="rgb(255,255,255)"></path></a><a title="72020: Emergency health services/support"><path transform="translate(300,300)" d="M-609.8977907612342,-1148.0525618736128A1300,1300 0 0,1 -572.2059510068094,-1167.2961704864763L-73.35973730856531,-149.6533551905739A166.66666666666669,166.66666666666669 0 0,0 -78.1920244565685,-147.18622588123245Z" fill="rgb(140,217,182)" fill-rule="evenodd" stroke="rgb(255,255,255)"></path></a><a title="72030: Water and sanitation services/support"><path transform="translate(300,300)" d="M-572.2059510068106,-1167.2961704864758A1300,1300 0 0,1 -533.9077113380774,-1185.302727480932L-68.4497065818048,-151.96188813858103A166.66666666666669,166.66666666666669 0 0,0 -73.35973730856546,-149.65335519057385Z" fill="rgb(140,217,183)" fill-rule="evenodd" stroke="rgb(255,255,255)"></path></a><a title="72040: Emergency food aid"><path transform="translate(300,300)" d="M-533.9077113380774,-1185.302727480932A1300,1300 0 0,1 -495.0436586262708,-1202.053150261633L-63.46713572131678,-154.10937823867093A166.66666666666669,166.66666666666669 0 0,0 -68.4497065818048,-151.96188813858103Z" fill="rgb(140,217,183)" fill-rule="evenodd" stroke="rgb(255,255,255)"></path></a><a title="72050: Relief co-ordination; protection and support services"><path transform="translate(300,300)" d="M-495.0436586262708,-1202.053150261633A1300,1300 0 0,1 -455.65497936760363,-1217.52968743169L-58.41730504712868,-156.09354967072952A166.66666666666669,166.66666666666669 0 0,0 -63.46713572131678,-154.10937823867093Z" fill="rgb(140,217,183)" fill-rule="evenodd" stroke="rgb(255,255,255)"></path></a><a title="RECONSTRUCTION RELIEF"><path transform="translate(300,300)" d="M-455.65497936760477,-1217.5296874316896A1300,1300 0 0,1 -415.7834160355432,-1231.715937604858L-31.983339695041785,-94.74737981575831A100,100 0 0,0 -35.05038302827729,-93.65612980243766Z" fill="rgb(64,191,136)" fill-rule="evenodd" stroke="rgb(255,255,255)" stroke-width="0.5"></path></a><a title="73010: Reconstruction relief and rehabilitation"><path transform="translate(300,300)" d="M-455.65497936760477,-1217.5296874316896A1300,1300 0 0,1 -415.7834160355432,-1231.715937604858L-53.30556615840298,-157.91229969293053A166.66666666666669,166.66666666666669 0 0,0 -58.41730504712882,-156.09354967072946Z" fill="rgb(140,217,184)" fill-rule="evenodd" stroke="rgb(255,255,255)"></path></a><a title="DISASTER PREVENTION AND PREPAREDNESS"><path transform="translate(300,300)" d="M-415.7834160355432,-1231.715937604858A1300,1300 0 0,1 -375.47122284388115,-1244.5968667870413L-28.882401757221626,-95.73822052208011A100,100 0 0,0 -31.983339695041785,-94.74737981575831Z" fill="rgb(64,191,137)" fill-rule="evenodd" stroke="rgb(255,255,255)" stroke-width="0.5"></path></a><a title="74010: Disaster prevention and preparedness"><path transform="translate(300,300)" d="M-415.7834160355432,-1231.715937604858A1300,1300 0 0,1 -375.47122284388115,-1244.5968667870413L-48.13733626203605,-159.56370087013354A166.66666666666669,166.66666666666669 0 0,0 -53.30556615840298,-157.91229969293053Z" fill="rgb(140,217,185)" fill-rule="evenodd" stroke="rgb(255,255,255)"></path></a><a title="ADMINISTRATIVE COSTS OF DONORS"><path transform="translate(300,300)" d="M-375.47122284388223,-1244.596866787041A1300,1300 0 0,1 -334.76112096749375,-1256.1588243086887L-8.583618486345992,-32.20920062329971A33.33333333333333,33.33333333333333 0 0,0 -9.627467252407236,-31.91274017402669Z" fill="rgb(64,191,138)" fill-rule="evenodd" stroke="rgb(255,255,255)" stroke-width="0.5"></path></a><a title="91010: Administrative costs"><path transform="translate(300,300)" d="M-375.47122284388223,-1244.596866787041A1300,1300 0 0,1 -334.76112096749375,-1256.1588243086887L-25.75085545903798,-96.62760186989912A100,100 0 0,0 -28.88240175722171,-95.73822052208008Z" fill="rgb(140,217,185)" fill-rule="evenodd" stroke="rgb(255,255,255)"></path></a><a title="SUPPORT TO NON- GOVERNMENTAL ORGANISATIONS (NGOs) AND GOVERNMENT ORGANIZATIONS"><path transform="translate(300,300)" d="M-334.76112096749375,-1256.1588243086887A1300,1300 0 0,1 -126.76416938229022,-1293.8047941481814L-3.2503633174946205,-33.17448190123542A33.33333333333333,33.33333333333333 0 0,0 -8.583618486345992,-32.20920062329971Z" fill="rgb(64,64,191)" fill-rule="evenodd" stroke="rgb(255,255,255)" stroke-width="0.5"></path></a><a title="92000: Support to non-governmental organizations and government organizations, combination of purposes"><path transform="translate(300,300)" d="M-334.76112096749375,-1256.1588243086887A1300,1300 0 0,1 -293.69625326822063,-1266.3895572912031L-22.592019482170816,-97.41458133009255A100,100 0 0,0 -25.75085545903798,-96.62760186989912Z" fill="rgb(147,140,217)" fill-rule="evenodd" stroke="rgb(255,255,255)"></path></a><a title="92005: Support to non-governmental organizations and government organizations, purpose unspecified or does not fit under any other applicable codes"><path transform="translate(300,300)" d="M-293.6962532682217,-1266.3895572912027A1300,1300 0 0,1 -252.32013857387432,-1275.278223632028L-19.409241428759564,-98.09832489477138A100,100 0 0,0 -22.5920194821709,-97.41458133009252Z" fill="rgb(153,140,217)" fill-rule="evenodd" stroke="rgb(255,255,255)"></path></a><a title="92010: Support to national NGOs"><path transform="translate(300,300)" d="M-252.32013857387432,-1275.278223632028A1300,1300 0 0,1 -210.6766255587995,-1282.815403494656L-16.205894273753806,-98.6781079611274A100,100 0 0,0 -19.409241428759564,-98.09832489477138Z" fill="rgb(159,140,217)" fill-rule="evenodd" stroke="rgb(255,255,255)"></path></a><a title="92020: Support to international NGOs"><path transform="translate(300,300)" d="M-210.6766255587995,-1282.815403494656A1300,1300 0 0,1 -168.80984627489119,-1288.9931092913753L-12.985372790376246,-99.15331609933656A100,100 0 0,0 -16.205894273753806,-98.6781079611274Z" fill="rgb(166,140,217)" fill-rule="evenodd" stroke="rgb(255,255,255)"></path></a><a title="92030: Support to local and regional NGOs"><path transform="translate(300,300)" d="M-168.80984627489119,-1288.9931092913753A1300,1300 0 0,1 -126.76416938228907,-1293.8047941481816L-9.751089952483774,-99.52344570370627A100,100 0 0,0 -12.985372790376246,-99.15331609933656Z" fill="rgb(172,140,217)" fill-rule="evenodd" stroke="rgb(255,255,255)"></path></a><a title="Refugees in donor countries"><path transform="translate(300,300)" d="M-126.76416938229022,-1293.8047941481814A1300,1300 0 0,1 -84.58415312933101,-1297.2453588428805L-2.1688244392136156,-33.2627015087918A33.33333333333333,33.33333333333333 0 0,0 -3.2503633174946205,-33.17448190123542Z" fill="rgb(128,64,191)" fill-rule="evenodd" stroke="rgb(255,255,255)" stroke-width="0.5"></path></a><a title="93010: Refugees in Donor Countries"><path transform="translate(300,300)" d="M-126.76416938229022,-1293.8047941481814A1300,1300 0 0,1 -84.58415312933101,-1297.2453588428805L-6.506473317640847,-99.78810452637542A100,100 0 0,0 -9.751089952483863,-99.52344570370626Z" fill="rgb(198,140,217)" fill-rule="evenodd" stroke="rgb(255,255,255)"></path></a><a title="UNALLOCATED/  UNSPECIFIED"><path transform="translate(300,300)" d="M-84.58415312933101,-1297.2453588428805A1300,1300 0 0,1 -2.3879823899536357e-13,-1300L-6.1230317691118855e-15,-33.33333333333333A33.33333333333333,33.33333333333333 0 0,0 -2.1688244392136156,-33.2627015087918Z" fill="rgb(191,64,191)" fill-rule="evenodd" stroke="rgb(255,255,255)" stroke-width="0.5"></path></a><a title="99810: Sectors not specified"><path transform="translate(300,300)" d="M-84.58415312933101,-1297.2453588428805A1300,1300 0 0,1 -42.314498131582084,-1299.3111572090315L-3.2549613947370832,-99.94701209300241A100,100 0 0,0 -6.506473317640847,-99.78810452637542Z" fill="rgb(217,140,207)" fill-rule="evenodd" stroke="rgb(255,255,255)"></path></a><a title="99820: Promotion of development awareness"><path transform="translate(300,300)" d="M-42.314498131583235,-1299.3111572090315A1300,1300 0 0,1 -1.3934301846055264e-12,-1300L-1.0718693727734818e-13,-100A100,100 0 0,0 -3.254961394737172,-99.94701209300241Z" fill="rgb(217,140,198)" fill-rule="evenodd" stroke="rgb(255,255,255)"></path></a></g></g></svg>